# Created by DisUnity v0.3.0
v -3002.1572 -1375.1749 0.0
v -3147.1572 -1253.1749 0.0
v -3147.1572 -1375.1749 0.0
v -3002.1572 -1253.1749 0.0
v -2371.4387 -1324.0675 0.0
v -2478.4387 -1223.0675 0.0
v -2478.4387 -1324.0675 0.0
v -2371.4387 -1223.0675 0.0
v -3002.9749 -892.9469 0.0
v -3121.9749 -768.9469 0.0
v -3121.9749 -892.9469 0.0
v -3002.9749 -768.9469 0.0
v -2066.8694 -901.5077 0.0
v -2238.8694 -768.5077 0.0
v -2238.8694 -901.5077 0.0
v -2066.8694 -768.5077 0.0
v -2834.9424 -339.72858 0.0
v -3151.9424 -22.728592 0.0
v -3151.9424 -339.72858 0.0
v -2834.9424 -22.728592 0.0
vn 0.0 0.0 1.0
vn 0.0 0.0 1.0
vn 0.0 0.0 1.0
vn 0.0 0.0 1.0
vn 0.0 0.0 1.0
vn 0.0 0.0 1.0
vn 0.0 0.0 1.0
vn 0.0 0.0 1.0
vn 0.0 0.0 1.0
vn 0.0 0.0 1.0
vn 0.0 0.0 1.0
vn 0.0 0.0 1.0
vn 0.0 0.0 1.0
vn 0.0 0.0 1.0
vn 0.0 0.0 1.0
vn 0.0 0.0 1.0
vn 0.0 0.0 1.0
vn 0.0 0.0 1.0
vn 0.0 0.0 1.0
vn 0.0 0.0 1.0
vt 0.453125 0.24414062
vt 0.7363281 0.36328125
vt 0.7363281 0.24414062
vt 0.453125 0.36328125
vt 0.24023438 0.26464844
vt 0.44921875 0.36328125
vt 0.44921875 0.26464844
vt 0.24023438 0.36328125
vt 0.00390625 0.2421875
vt 0.23632812 0.36328125
vt 0.23632812 0.2421875
vt 0.00390625 0.36328125
vt 0.6269531 0.5449219
vt 0.9628906 0.6748047
vt 0.9628906 0.5449219
vt 0.6269531 0.6748047
vt 0.00390625 0.36523438
vt 0.6230469 0.6748047
vt 0.6230469 0.36523438
vt 0.00390625 0.6748047

o BornEffect_Skin
s 1
usemtl BornEffect_Skin_0
f 1/1/1 2/2/2 3/3/3
f 1/1/1 4/4/4 2/2/2
f 5/5/5 6/6/6 7/7/7
f 5/5/5 8/8/8 6/6/6
f 9/9/9 10/10/10 11/11/11
f 9/9/9 12/12/12 10/10/10
f 13/13/13 14/14/14 15/15/15
f 13/13/13 16/16/16 14/14/14
f 17/17/17 18/18/18 19/19/19
f 17/17/17 20/20/20 18/18/18

