# Created by DisUnity v0.3.0
v -962.60846 1186.4536 0.0
v -1027.6084 1250.4536 0.0
v -1027.6084 1186.4536 0.0
v -962.60846 1250.4536 0.0
v -967.83246 953.09705 0.0
v -1041.8325 1026.097 0.0
v -1041.8325 953.09705 0.0
v -967.83246 1026.097 0.0
v -1253.975 1153.01 -0.2591989
v -1211.7562 1148.6152 0.2591989
v -1232.0745 1172.0194 -0.38368535
v -1233.6567 1129.6058 0.38368535
v -1253.975 999.7553 -0.2591989
v -1211.7562 995.36053 0.2591989
v -1232.0745 1018.7647 -0.38368535
v -1233.6567 976.35114 0.38368535
v -1257.0471 814.19073 0.0
v -1211.1409 816.55914 0.0
v -1234.5715 838.35364 0.0
v -1233.6165 792.39624 0.0
vn 0.0 0.0 1.0
vn 0.0 0.0 1.0
vn 0.0 0.0 1.0
vn 0.0 0.0 1.0
vn 0.0 0.0 1.0
vn 0.0 0.0 1.0
vn 0.0 0.0 1.0
vn 0.0 0.0 1.0
vn -0.010352965 0.01847473 0.9997757
vn -0.010352965 0.01847473 0.9997757
vn -0.010352965 0.01847473 0.9997757
vn -0.010352965 0.01847473 0.9997757
vn -0.010352942 0.018474689 0.9997757
vn -0.010352942 0.018474689 0.9997757
vn -0.010352942 0.018474689 0.9997757
vn -0.010352942 0.018474689 0.9997757
vn 0.0 0.0 1.0
vn 0.0 0.0 1.0
vn 0.0 0.0 1.0
vn 0.0 0.0 1.0
vt 0.55859375 0.9355469
vt 0.6855469 0.9980469
vt 0.6855469 0.9355469
vt 0.55859375 0.9980469
vt 0.00390625 0.9267578
vt 0.1484375 0.9980469
vt 0.1484375 0.9267578
vt 0.00390625 0.9980469
vt 0.86328125 0.96777344
vt 0.9199219 0.9980469
vt 0.9199219 0.96777344
vt 0.86328125 0.9980469
vt 0.86328125 0.96777344
vt 0.9199219 0.9980469
vt 0.9199219 0.96777344
vt 0.86328125 0.9980469
vt 0.7949219 0.9667969
vt 0.859375 0.9980469
vt 0.859375 0.9667969
vt 0.7949219 0.9980469

o CenterBlood_01_Skin
s 1
usemtl CenterBlood_01_Skin_0
f 1/1/1 2/2/2 3/3/3
f 1/1/1 4/4/4 2/2/2
f 5/5/5 6/6/6 7/7/7
f 5/5/5 8/8/8 6/6/6
f 9/9/9 10/10/10 11/11/11
f 9/9/9 12/12/12 10/10/10
f 13/13/13 14/14/14 15/15/15
f 13/13/13 16/16/16 14/14/14
f 17/17/17 18/18/18 19/19/19
f 17/17/17 20/20/20 18/18/18

