# Created by DisUnity v0.3.0
v -2652.0674 1368.355 0.0
v -2717.0674 1432.355 0.0
v -2717.0674 1368.355 0.0
v -2652.0674 1432.355 0.0
v -2550.2598 1199.7433 -0.2591989
v -2508.041 1195.3485 0.2591989
v -2528.3594 1218.7527 -0.38368535
v -2529.9414 1176.3391 0.38368535
v -2871.4739 1199.7114 -0.2591989
v -2829.2551 1195.3167 0.2591989
v -2849.5735 1218.7208 -0.38368535
v -2851.1555 1176.3073 0.38368535
v -2656.428 976.4396 0.0
v -2744.428 1067.4396 0.0
v -2744.428 976.4396 0.0
v -2656.428 1067.4396 0.0
v -2553.3318 860.9241 0.0
v -2507.4255 863.2925 0.0
v -2530.8562 885.08704 0.0
v -2529.9011 839.1295 0.0
v -2882.9211 853.53986 0.0
v -2837.015 855.90826 0.0
v -2860.4456 877.70276 0.0
v -2859.4905 831.74536 0.0
vn 0.0 0.0 1.0
vn 0.0 0.0 1.0
vn 0.0 0.0 1.0
vn 0.0 0.0 1.0
vn -0.010352988 0.018474838 0.9997757
vn -0.010352988 0.018474838 0.9997757
vn -0.010352988 0.018474838 0.9997757
vn -0.010352988 0.018474838 0.9997757
vn -0.010352987 0.018474566 0.9997757
vn -0.010352987 0.018474566 0.9997757
vn -0.010352987 0.018474566 0.9997757
vn -0.010352987 0.018474566 0.9997757
vn 0.0 0.0 1.0
vn 0.0 0.0 1.0
vn 0.0 0.0 1.0
vn 0.0 0.0 1.0
vn 0.0 0.0 1.0
vn 0.0 0.0 1.0
vn 0.0 0.0 1.0
vn 0.0 0.0 1.0
vn 0.0 0.0 1.0
vn 0.0 0.0 1.0
vn 0.0 0.0 1.0
vn 0.0 0.0 1.0
vt 0.55859375 0.9355469
vt 0.6855469 0.9980469
vt 0.6855469 0.9355469
vt 0.55859375 0.9980469
vt 0.86328125 0.96777344
vt 0.9199219 0.9980469
vt 0.9199219 0.96777344
vt 0.86328125 0.9980469
vt 0.86328125 0.96777344
vt 0.9199219 0.9980469
vt 0.9199219 0.96777344
vt 0.86328125 0.9980469
vt 0.3828125 0.9091797
vt 0.5546875 0.9980469
vt 0.5546875 0.9091797
vt 0.3828125 0.9980469
vt 0.7949219 0.9667969
vt 0.859375 0.9980469
vt 0.859375 0.9667969
vt 0.7949219 0.9980469
vt 0.7949219 0.9667969
vt 0.859375 0.9980469
vt 0.859375 0.9667969
vt 0.7949219 0.9980469

o CenterBlood_03_Skin
s 1
usemtl CenterBlood_03_Skin_0
f 1/1/1 2/2/2 3/3/3
f 1/1/1 4/4/4 2/2/2
f 5/5/5 6/6/6 7/7/7
f 5/5/5 8/8/8 6/6/6
f 9/9/9 10/10/10 11/11/11
f 9/9/9 12/12/12 10/10/10
f 13/13/13 14/14/14 15/15/15
f 13/13/13 16/16/16 14/14/14
f 17/17/17 18/18/18 19/19/19
f 17/17/17 20/20/20 18/18/18
f 21/21/21 22/22/22 23/23/23
f 21/21/21 24/24/24 22/22/22

