# Created by DisUnity v0.3.0
v -364.72583 -1093.6178 0.0
v -519.7258 -957.6178 0.0
v -519.7258 -1093.6178 0.0
v -364.72583 -957.6178 0.0
v -804.57935 -1089.5071 0.0
v -959.57935 -953.5071 0.0
v -959.57935 -1089.5071 0.0
v -804.57935 -953.5071 0.0
v -315.39648 -703.0937 0.0
v -470.39648 -567.0937 0.0
v -470.39648 -703.0937 0.0
v -315.39648 -567.0937 0.0
v -772.7946 -741.2852 0.0
v -972.7946 -541.2852 0.0
v -972.7946 -741.2852 0.0
v -772.7946 -541.2852 0.0
vn 0.0 0.0 1.0
vn 0.0 0.0 1.0
vn 0.0 0.0 1.0
vn 0.0 0.0 1.0
vn 0.0 0.0 1.0
vn 0.0 0.0 1.0
vn 0.0 0.0 1.0
vn 0.0 0.0 1.0
vn 0.0 0.0 1.0
vn 0.0 0.0 1.0
vn 0.0 0.0 1.0
vn 0.0 0.0 1.0
vn 0.0 0.0 1.0
vn 0.0 0.0 1.0
vn 0.0 0.0 1.0
vn 0.0 0.0 1.0
vt 0.3984375 0.10742188
vt 0.7011719 0.24023438
vt 0.7011719 0.10742188
vt 0.3984375 0.24023438
vt 0.3984375 0.10742188
vt 0.7011719 0.24023438
vt 0.7011719 0.10742188
vt 0.3984375 0.24023438
vt 0.3984375 0.10742188
vt 0.7011719 0.24023438
vt 0.7011719 0.10742188
vt 0.3984375 0.24023438
vt 0.00390625 0.044921875
vt 0.39453125 0.24023438
vt 0.39453125 0.044921875
vt 0.00390625 0.24023438

o Explode_Skin
s 1
usemtl Explode_Skin_0
f 1/1/1 2/2/2 3/3/3
f 1/1/1 4/4/4 2/2/2
f 5/5/5 6/6/6 7/7/7
f 5/5/5 8/8/8 6/6/6
f 9/9/9 10/10/10 11/11/11
f 9/9/9 12/12/12 10/10/10
f 13/13/13 14/14/14 15/15/15
f 13/13/13 16/16/16 14/14/14

