# Created by DisUnity v0.3.0
v 125.5 -125.5 0.0
v -125.5 125.5 0.0
v -125.5 -125.5 0.0
v 125.5 125.5 0.0
v 75.5 350.74695 0.0
v -75.5 501.74695 0.0
v -75.5 350.74695 0.0
v 75.5 501.74695 0.0
v -299.00598 101.89758 0.0
v -450.00598 252.89758 0.0
v -450.00598 101.89758 0.0
v -299.00598 252.89758 0.0
v -193.06024 -376.09036 0.0
v -344.06024 -225.09035 0.0
v -344.06024 -376.09036 0.0
v -193.06024 -225.09035 0.0
v 452.46985 168.42168 0.0
v 301.46985 319.4217 0.0
v 301.46985 168.42168 0.0
v 452.46985 319.4217 0.0
v 421.80017 -401.45425 0.0
v 270.80017 -250.45424 0.0
v 270.80017 -401.45425 0.0
v 421.80017 -250.45424 0.0
vn 0.0 0.0 1.0
vn 0.0 0.0 1.0
vn 0.0 0.0 1.0
vn 0.0 0.0 1.0
vn 0.0 0.0 1.0
vn 0.0 0.0 1.0
vn 0.0 0.0 1.0
vn 0.0 0.0 1.0
vn 0.0 0.0 1.0
vn 0.0 0.0 1.0
vn 0.0 0.0 1.0
vn 0.0 0.0 1.0
vn 0.0 0.0 1.0
vn 0.0 0.0 1.0
vn 0.0 0.0 1.0
vn 0.0 0.0 1.0
vn 0.0 0.0 1.0
vn 0.0 0.0 1.0
vn 0.0 0.0 1.0
vn 0.0 0.0 1.0
vn 0.0 0.0 1.0
vn 0.0 0.0 1.0
vn 0.0 0.0 1.0
vn 0.0 0.0 1.0
vt 0.00390625 0.5058594
vt 0.49414062 0.99609375
vt 0.49414062 0.5058594
vt 0.00390625 0.99609375
vt 0.6015625 0.103515625
vt 0.8964844 0.3984375
vt 0.8964844 0.103515625
vt 0.6015625 0.3984375
vt 0.6015625 0.40234375
vt 0.8964844 0.6972656
vt 0.8964844 0.40234375
vt 0.6015625 0.6972656
vt 0.6015625 0.7011719
vt 0.8964844 0.99609375
vt 0.8964844 0.7011719
vt 0.6015625 0.99609375
vt 0.30273438 0.20703125
vt 0.59765625 0.5019531
vt 0.59765625 0.20703125
vt 0.30273438 0.5019531
vt 0.00390625 0.20703125
vt 0.29882812 0.5019531
vt 0.29882812 0.20703125
vt 0.00390625 0.5019531

o FurySkillEffectSkin
s 1
usemtl FurySkillEffectSkin_0
f 1/1/1 2/2/2 3/3/3
f 1/1/1 4/4/4 2/2/2
f 5/5/5 6/6/6 7/7/7
f 5/5/5 8/8/8 6/6/6
f 9/9/9 10/10/10 11/11/11
f 9/9/9 12/12/12 10/10/10
f 13/13/13 14/14/14 15/15/15
f 13/13/13 16/16/16 14/14/14
f 17/17/17 18/18/18 19/19/19
f 17/17/17 20/20/20 18/18/18
f 21/21/21 22/22/22 23/23/23
f 21/21/21 24/24/24 22/22/22

