# Created by DisUnity v0.3.0
v 521.3533 492.33148 0.0
v 420.35327 636.3315 0.0
v 420.35327 492.33148 0.0
v 521.3533 636.3315 0.0
v 275.54016 492.33148 0.0
v 174.54016 636.3315 0.0
v 174.54016 492.33148 0.0
v 275.54016 636.3315 0.0
v 40.113533 492.33148 0.0
v -60.886467 636.3315 0.0
v -60.886467 492.33148 0.0
v 40.113533 636.3315 0.0
v -181.46448 492.33148 0.0
v -282.46448 636.3315 0.0
v -282.46448 492.33148 0.0
v -181.46448 636.3315 0.0
v -399.58032 492.33148 0.0
v -500.58032 636.3315 0.0
v -500.58032 492.33148 0.0
v -399.58032 636.3315 0.0
vn 0.0 0.0 1.0
vn 0.0 0.0 1.0
vn 0.0 0.0 1.0
vn 0.0 0.0 1.0
vn 0.0 0.0 1.0
vn 0.0 0.0 1.0
vn 0.0 0.0 1.0
vn 0.0 0.0 1.0
vn 0.0 0.0 1.0
vn 0.0 0.0 1.0
vn 0.0 0.0 1.0
vn 0.0 0.0 1.0
vn 0.0 0.0 1.0
vn 0.0 0.0 1.0
vn 0.0 0.0 1.0
vn 0.0 0.0 1.0
vn 0.0 0.0 1.0
vn 0.0 0.0 1.0
vn 0.0 0.0 1.0
vn 0.0 0.0 1.0
vt 0.79296875 0.71875
vt 0.9902344 1.0
vt 0.9902344 0.71875
vt 0.79296875 1.0
vt 0.79296875 0.71875
vt 0.9902344 1.0
vt 0.9902344 0.71875
vt 0.79296875 1.0
vt 0.79296875 0.71875
vt 0.9902344 1.0
vt 0.9902344 0.71875
vt 0.79296875 1.0
vt 0.79296875 0.71875
vt 0.9902344 1.0
vt 0.9902344 0.71875
vt 0.79296875 1.0
vt 0.79296875 0.71875
vt 0.9902344 1.0
vt 0.9902344 0.71875
vt 0.79296875 1.0

o HealWater_Skin
s 1
usemtl HealWater_Skin_0
f 1/1/1 2/2/2 3/3/3
f 1/1/1 4/4/4 2/2/2
f 5/5/5 6/6/6 7/7/7
f 5/5/5 8/8/8 6/6/6
f 9/9/9 10/10/10 11/11/11
f 9/9/9 12/12/12 10/10/10
f 13/13/13 14/14/14 15/15/15
f 13/13/13 16/16/16 14/14/14
f 17/17/17 18/18/18 19/19/19
f 17/17/17 20/20/20 18/18/18

