# Created by DisUnity v0.3.0
v 29.5 -72.25 0.0
v -29.5 72.25 0.0
v -29.5 -72.25 0.0
v 29.5 72.25 0.0
v -745.4502 81.1877 0.0
v -783.9502 184.1877 0.0
v -783.9502 81.1877 0.0
v -745.4502 184.1877 0.0
v -2.676035 -302.3261 0.0
v -60.176033 -270.3261 0.0
v -60.176033 -302.3261 0.0
v -2.676035 -270.3261 0.0
v 73.86029 -535.00903 0.0
v 44.860287 -519.50903 0.0
v 44.860287 -535.00903 0.0
v 73.86029 -519.50903 0.0
v 464.71448 -513.10767 0.0
v 415.21448 -457.60767 0.0
v 415.21448 -513.10767 0.0
v 464.71448 -457.60767 0.0
v 618.57825 9.458908 0.0
v 589.57825 25.458908 0.0
v 589.57825 9.458908 0.0
v 618.57825 25.458908 0.0
v -373.8596 -335.00317 0.0
v -429.8596 -277.00317 0.0
v -429.8596 -335.00317 0.0
v -373.8596 -277.00317 0.0
v -378.54636 -26.283037 0.0
v -432.54636 44.716965 0.0
v -432.54636 -26.283037 0.0
v -378.54636 44.716965 0.0
v -395.82083 316.34085 0.0
v -485.32083 358.34085 0.0
v -485.32083 316.34085 0.0
v -395.82083 358.34085 0.0
v 13.945362 334.48602 0.0
v -95.05464 454.48602 0.0
v -95.05464 334.48602 0.0
v 13.945362 454.48602 0.0
v 324.1928 -208.77605 0.0
v 265.6928 -167.27605 0.0
v 265.6928 -208.77605 0.0
v 324.1928 -167.27605 0.0
v 351.3224 192.09793 0.0
v 303.3224 389.59793 0.0
v 303.3224 192.09793 0.0
v 351.3224 389.59793 0.0
vn 0.0 0.0 1.0
vn 0.0 0.0 1.0
vn 0.0 0.0 1.0
vn 0.0 0.0 1.0
vn 0.0 0.0 1.0
vn 0.0 0.0 1.0
vn 0.0 0.0 1.0
vn 0.0 0.0 1.0
vn 0.0 0.0 1.0
vn 0.0 0.0 1.0
vn 0.0 0.0 1.0
vn 0.0 0.0 1.0
vn 0.0 0.0 1.0
vn 0.0 0.0 1.0
vn 0.0 0.0 1.0
vn 0.0 0.0 1.0
vn 0.0 0.0 1.0
vn 0.0 0.0 1.0
vn 0.0 0.0 1.0
vn 0.0 0.0 1.0
vn 0.0 0.0 1.0
vn 0.0 0.0 1.0
vn 0.0 0.0 1.0
vn 0.0 0.0 1.0
vn 0.0 0.0 1.0
vn 0.0 0.0 1.0
vn 0.0 0.0 1.0
vn 0.0 0.0 1.0
vn 0.0 0.0 1.0
vn 0.0 0.0 1.0
vn 0.0 0.0 1.0
vn 0.0 0.0 1.0
vn 0.0 0.0 1.0
vn 0.0 0.0 1.0
vn 0.0 0.0 1.0
vn 0.0 0.0 1.0
vn 0.0 0.0 1.0
vn 0.0 0.0 1.0
vn 0.0 0.0 1.0
vn 0.0 0.0 1.0
vn 0.0 0.0 1.0
vn 0.0 0.0 1.0
vn 0.0 0.0 1.0
vn 0.0 0.0 1.0
vn 0.0 0.0 1.0
vn 0.0 0.0 1.0
vn 0.0 0.0 1.0
vn 0.0 0.0 1.0
vt 0.5566406 0.26757812
vt 0.7207031 0.6660156
vt 0.7207031 0.26757812
vt 0.5566406 0.6660156
vt 0.44140625 0.3828125
vt 0.5488281 0.6660156
vt 0.5488281 0.3828125
vt 0.44140625 0.6660156
vt 0.5566406 0.0546875
vt 0.7167969 0.14453125
vt 0.7167969 0.0546875
vt 0.5566406 0.14453125
vt 0.9140625 0.9550781
vt 0.9941406 1.0
vt 0.9941406 0.9550781
vt 0.9140625 1.0
vt 0.7246094 0.34765625
vt 0.8613281 0.5019531
vt 0.8613281 0.34765625
vt 0.7246094 0.5019531
vt 0.9140625 0.90625
vt 0.9941406 0.9511719
vt 0.9941406 0.90625
vt 0.9140625 0.9511719
vt 0.7246094 0.5058594
vt 0.87890625 0.6660156
vt 0.87890625 0.5058594
vt 0.7246094 0.6660156
vt 0.7207031 0.068359375
vt 0.87109375 0.26367188
vt 0.87109375 0.068359375
vt 0.7207031 0.26367188
vt 0.3046875 0.00390625
vt 0.5527344 0.12109375
vt 0.5527344 0.00390625
vt 0.3046875 0.12109375
vt 0.609375 0.6699219
vt 0.91015625 1.0
vt 0.91015625 0.6699219
vt 0.609375 1.0
vt 0.44140625 0.1484375
vt 0.6035156 0.26367188
vt 0.6035156 0.1484375
vt 0.44140625 0.26367188
vt 0.3046875 0.125
vt 0.4375 0.6660156
vt 0.4375 0.125
vt 0.3046875 0.6660156

o NPC_Skin
s 1
usemtl NPC_Skin_0
f 1/1/1 2/2/2 3/3/3
f 1/1/1 4/4/4 2/2/2
f 5/5/5 6/6/6 7/7/7
f 5/5/5 8/8/8 6/6/6
f 9/9/9 10/10/10 11/11/11
f 9/9/9 12/12/12 10/10/10
f 13/13/13 14/14/14 15/15/15
f 13/13/13 16/16/16 14/14/14
f 17/17/17 18/18/18 19/19/19
f 17/17/17 20/20/20 18/18/18
f 21/21/21 22/22/22 23/23/23
f 21/21/21 24/24/24 22/22/22
f 25/25/25 26/26/26 27/27/27
f 25/25/25 28/28/28 26/26/26
f 29/29/29 30/30/30 31/31/31
f 29/29/29 32/32/32 30/30/30
f 33/33/33 34/34/34 35/35/35
f 33/33/33 36/36/36 34/34/34
f 37/37/37 38/38/38 39/39/39
f 37/37/37 40/40/40 38/38/38
f 41/41/41 42/42/42 43/43/43
f 41/41/41 44/44/44 42/42/42
f 45/45/45 46/46/46 47/47/47
f 45/45/45 48/48/48 46/46/46

