# Created by DisUnity v0.3.0
v 244.71548 -74.23729 0.0
v 233.91354 -28.148968 0.0
v 233.91354 -74.23729 0.0
v 244.71548 -28.148968 0.0
v 235.026 -461.40228 0.0
v 223.50394 -432.5971 0.0
v 223.50394 -461.40228 0.0
v 235.026 -432.5971 0.0
v 241.21848 -261.1617 0.0
v 223.93536 -248.9195 0.0
v 223.93536 -261.1617 0.0
v 241.21848 -248.9195 0.0
v 1.6855154 -109.63225 0.0
v -11.996954 -79.386795 0.0
v -11.996954 -109.63225 0.0
v 1.6855154 -79.386795 0.0
v 7.8808875 -465.09113 0.0
v -5.801582 -435.5658 0.0
v -5.801582 -465.09113 0.0
v 7.8808875 -435.5658 0.0
v -5.4193325 -269.3469 0.0
v -24.142712 -255.66441 0.0
v -24.142712 -269.3469 0.0
v -5.4193325 -255.66441 0.0
v -264.33798 -204.13806 0.0
v -321.22824 -171.73221 0.0
v -321.22824 -204.13806 0.0
v -264.33798 -171.73221 0.0
v -264.56882 -7.948599 0.0
v -332.26102 52.54232 0.0
v -332.26102 -7.948599 0.0
v -264.56882 52.54232 0.0
v 26.856403 182.00471 0.0
v -101.32674 302.98654 0.0
v -101.32674 182.00471 0.0
v 26.856403 302.98654 0.0
v -246.23605 181.21423 0.0
v -307.4471 243.14542 0.0
v -307.4471 181.21423 0.0
v -246.23605 243.14542 0.0
vn 0.0 0.0 1.0
vn 0.0 0.0 1.0
vn 0.0 0.0 1.0
vn 0.0 0.0 1.0
vn 0.0 0.0 1.0
vn 0.0 0.0 1.0
vn 0.0 0.0 1.0
vn 0.0 0.0 1.0
vn 0.0 0.0 1.0
vn 0.0 0.0 1.0
vn 0.0 0.0 1.0
vn 0.0 0.0 1.0
vn 0.0 0.0 1.0
vn 0.0 0.0 1.0
vn 0.0 0.0 1.0
vn 0.0 0.0 1.0
vn 0.0 0.0 1.0
vn 0.0 0.0 1.0
vn 0.0 0.0 1.0
vn 0.0 0.0 1.0
vn 0.0 0.0 1.0
vn 0.0 0.0 1.0
vn 0.0 0.0 1.0
vn 0.0 0.0 1.0
vn 0.0 0.0 1.0
vn 0.0 0.0 1.0
vn 0.0 0.0 1.0
vn 0.0 0.0 1.0
vn 0.0 0.0 1.0
vn 0.0 0.0 1.0
vn 0.0 0.0 1.0
vn 0.0 0.0 1.0
vn 0.0 0.0 1.0
vn 0.0 0.0 1.0
vn 0.0 0.0 1.0
vn 0.0 0.0 1.0
vn 0.0 0.0 1.0
vn 0.0 0.0 1.0
vn 0.0 0.0 1.0
vn 0.0 0.0 1.0
vt 0.89453125 0.74609375
vt 0.9238281 0.87109375
vt 0.9238281 0.74609375
vt 0.89453125 0.87109375
vt 0.9355469 0.7949219
vt 0.9667969 0.8730469
vt 0.9667969 0.7949219
vt 0.9355469 0.8730469
vt 0.94921875 0.9628906
vt 0.99609375 0.99609375
vt 0.99609375 0.9628906
vt 0.94921875 0.99609375
vt 0.94921875 0.8769531
vt 0.9863281 0.9589844
vt 0.9863281 0.8769531
vt 0.94921875 0.9589844
vt 0.89453125 0.875
vt 0.9316406 0.9550781
vt 0.9316406 0.875
vt 0.89453125 0.9550781
vt 0.89453125 0.9589844
vt 0.9453125 0.99609375
vt 0.9453125 0.9589844
vt 0.89453125 0.99609375
vt 0.70703125 0.5683594
vt 0.8613281 0.65625
vt 0.8613281 0.5683594
vt 0.70703125 0.65625
vt 0.70703125 0.83203125
vt 0.890625 0.99609375
vt 0.890625 0.83203125
vt 0.70703125 0.99609375
vt 0.35546875 0.00390625
vt 0.703125 0.33203125
vt 0.703125 0.00390625
vt 0.35546875 0.33203125
vt 0.70703125 0.66015625
vt 0.8730469 0.828125
vt 0.8730469 0.66015625
vt 0.70703125 0.828125

o NPC_Skin
s 1
usemtl NPC_Skin_0
f 1/1/1 2/2/2 3/3/3
f 1/1/1 4/4/4 2/2/2
f 5/5/5 6/6/6 7/7/7
f 5/5/5 8/8/8 6/6/6
f 9/9/9 10/10/10 11/11/11
f 9/9/9 12/12/12 10/10/10
f 13/13/13 14/14/14 15/15/15
f 13/13/13 16/16/16 14/14/14
f 17/17/17 18/18/18 19/19/19
f 17/17/17 20/20/20 18/18/18
f 21/21/21 22/22/22 23/23/23
f 21/21/21 24/24/24 22/22/22
f 25/25/25 26/26/26 27/27/27
f 25/25/25 28/28/28 26/26/26
f 29/29/29 30/30/30 31/31/31
f 29/29/29 32/32/32 30/30/30
f 33/33/33 34/34/34 35/35/35
f 33/33/33 36/36/36 34/34/34
f 37/37/37 38/38/38 39/39/39
f 37/37/37 40/40/40 38/38/38

