# Created by DisUnity v0.3.0
v -8.899862 -42.710983 0.0
v -30.882711 -17.587727 0.0
v -30.882711 -42.710983 0.0
v -8.899862 -17.587727 0.0
v -484.81528 -942.6803 0.0
v -506.79813 -923.8379 0.0
v -506.79813 -942.6803 0.0
v -484.81528 -923.8379 0.0
v -456.69373 837.04803 0.0
v -480.24677 861.38617 0.0
v -480.24677 837.04803 0.0
v -456.69373 861.38617 0.0
v 128.44641 -1031.7683 0.0
v 104.10826 -1007.4302 0.0
v 104.10826 -1031.7683 0.0
v 128.44641 -1007.4302 0.0
v 1021.56665 -4.88538 0.0
v 1000.3689 12.38686 0.0
v 1000.3689 -4.88538 0.0
v 1021.56665 12.38686 0.0
v 17.078165 1113.587 0.0
v -7.259991 1138.7103 0.0
v -7.259991 1113.587 0.0
v 17.078165 1138.7103 0.0
v -996.3722 -150.36899 0.0
v -1129.8395 -62.43759 0.0
v -1129.8395 -150.36899 0.0
v -996.3722 -62.43759 0.0
v -428.98984 -474.52856 0.0
v -478.45126 -450.97552 0.0
v -478.45126 -474.52856 0.0
v -428.98984 -450.97552 0.0
v 53.710934 -571.5314 0.0
v 7.389927 -523.64014 0.0
v 7.389927 -571.5314 0.0
v 53.710934 -523.64014 0.0
v 682.1428 -753.17096 0.0
v 587.93066 -665.23956 0.0
v 587.93066 -753.17096 0.0
v 682.1428 -665.23956 0.0
v -488.59418 -63.93515 0.0
v -600.8637 61.681133 0.0
v -600.8637 -63.93515 0.0
v -488.59418 61.681133 0.0
v 502.76376 -146.51625 0.0
v 388.1389 66.24632 0.0
v 388.1389 -146.51625 0.0
v 502.76376 66.24632 0.0
v 677.80347 616.3503 0.0
v 632.2675 643.8288 0.0
v 632.2675 616.3503 0.0
v 677.80347 643.8288 0.0
v -406.5256 447.5051 0.0
v -538.4227 460.8518 0.0
v -538.4227 447.5051 0.0
v -406.5256 460.8518 0.0
v 91.930664 558.18964 0.0
v 49.535164 590.3788 0.0
v 49.535164 558.18964 0.0
v 91.930664 590.3788 0.0
vn 0.0 0.0 1.0
vn 0.0 0.0 1.0
vn 0.0 0.0 1.0
vn 0.0 0.0 1.0
vn 0.0 0.0 1.0
vn 0.0 0.0 1.0
vn 0.0 0.0 1.0
vn 0.0 0.0 1.0
vn 0.0 0.0 1.0
vn 0.0 0.0 1.0
vn 0.0 0.0 1.0
vn 0.0 0.0 1.0
vn 0.0 0.0 1.0
vn 0.0 0.0 1.0
vn 0.0 0.0 1.0
vn 0.0 0.0 1.0
vn 0.0 0.0 1.0
vn 0.0 0.0 1.0
vn 0.0 0.0 1.0
vn 0.0 0.0 1.0
vn 0.0 0.0 1.0
vn 0.0 0.0 1.0
vn 0.0 0.0 1.0
vn 0.0 0.0 1.0
vn 0.0 0.0 1.0
vn 0.0 0.0 1.0
vn 0.0 0.0 1.0
vn 0.0 0.0 1.0
vn 0.0 0.0 1.0
vn 0.0 0.0 1.0
vn 0.0 0.0 1.0
vn 0.0 0.0 1.0
vn 0.0 0.0 1.0
vn 0.0 0.0 1.0
vn 0.0 0.0 1.0
vn 0.0 0.0 1.0
vn 0.0 0.0 1.0
vn 0.0 0.0 1.0
vn 0.0 0.0 1.0
vn 0.0 0.0 1.0
vn 0.0 0.0 1.0
vn 0.0 0.0 1.0
vn 0.0 0.0 1.0
vn 0.0 0.0 1.0
vn 0.0 0.0 1.0
vn 0.0 0.0 1.0
vn 0.0 0.0 1.0
vn 0.0 0.0 1.0
vn 0.0 0.0 1.0
vn 0.0 0.0 1.0
vn 0.0 0.0 1.0
vn 0.0 0.0 1.0
vn 0.0 0.0 1.0
vn 0.0 0.0 1.0
vn 0.0 0.0 1.0
vn 0.0 0.0 1.0
vn 0.0 0.0 1.0
vn 0.0 0.0 1.0
vn 0.0 0.0 1.0
vn 0.0 0.0 1.0
vt 0.1328125 0.17773438
vt 0.1875 0.24023438
vt 0.1875 0.17773438
vt 0.1328125 0.24023438
vt 0.41992188 0.5957031
vt 0.47460938 0.6425781
vt 0.47460938 0.5957031
vt 0.41992188 0.6425781
vt 0.068359375 0.115234375
vt 0.12695312 0.17578125
vt 0.12695312 0.115234375
vt 0.068359375 0.17578125
vt 0.068359375 0.1796875
vt 0.12890625 0.24023438
vt 0.12890625 0.1796875
vt 0.068359375 0.24023438
vt 0.47851562 0.5996094
vt 0.53125 0.6425781
vt 0.53125 0.5996094
vt 0.47851562 0.6425781
vt 0.00390625 0.17773438
vt 0.064453125 0.24023438
vt 0.064453125 0.17773438
vt 0.00390625 0.24023438
vt 0.00390625 0.24414062
vt 0.3359375 0.46289062
vt 0.3359375 0.24414062
vt 0.00390625 0.46289062
vt 0.29296875 0.5839844
vt 0.41601562 0.6425781
vt 0.41601562 0.5839844
vt 0.29296875 0.6425781
vt 0.859375 0.8769531
vt 0.9746094 0.99609375
vt 0.9746094 0.8769531
vt 0.859375 0.99609375
vt 0.33984375 0.044921875
vt 0.57421875 0.26367188
vt 0.57421875 0.044921875
vt 0.33984375 0.26367188
vt 0.6230469 0.05078125
vt 0.90234375 0.36328125
vt 0.90234375 0.05078125
vt 0.6230469 0.36328125
vt 0.00390625 0.46679688
vt 0.2890625 0.99609375
vt 0.2890625 0.46679688
vt 0.00390625 0.99609375
vt 0.859375 0.7207031
vt 0.97265625 0.7890625
vt 0.97265625 0.7207031
vt 0.859375 0.7890625
vt 0.29296875 0.6464844
vt 0.62109375 0.6796875
vt 0.62109375 0.6464844
vt 0.29296875 0.6796875
vt 0.859375 0.79296875
vt 0.96484375 0.8730469
vt 0.96484375 0.79296875
vt 0.859375 0.8730469

o NPC_Skin
s 1
usemtl NPC_Skin_0
f 1/1/1 2/2/2 3/3/3
f 1/1/1 4/4/4 2/2/2
f 5/5/5 6/6/6 7/7/7
f 5/5/5 8/8/8 6/6/6
f 9/9/9 10/10/10 11/11/11
f 9/9/9 12/12/12 10/10/10
f 13/13/13 14/14/14 15/15/15
f 13/13/13 16/16/16 14/14/14
f 17/17/17 18/18/18 19/19/19
f 17/17/17 20/20/20 18/18/18
f 21/21/21 22/22/22 23/23/23
f 21/21/21 24/24/24 22/22/22
f 25/25/25 26/26/26 27/27/27
f 25/25/25 28/28/28 26/26/26
f 29/29/29 30/30/30 31/31/31
f 29/29/29 32/32/32 30/30/30
f 33/33/33 34/34/34 35/35/35
f 33/33/33 36/36/36 34/34/34
f 37/37/37 38/38/38 39/39/39
f 37/37/37 40/40/40 38/38/38
f 41/41/41 42/42/42 43/43/43
f 41/41/41 44/44/44 42/42/42
f 45/45/45 46/46/46 47/47/47
f 45/45/45 48/48/48 46/46/46
f 49/49/49 50/50/50 51/51/51
f 49/49/49 52/52/52 50/50/50
f 53/53/53 54/54/54 55/55/55
f 53/53/53 56/56/56 54/54/54
f 57/57/57 58/58/58 59/59/59
f 57/57/57 60/60/60 58/58/58

