# Created by DisUnity v0.3.0
v 109.708244 -91.92785 0.0
v 88.458244 -75.67785 0.0
v 88.458244 -91.92785 0.0
v 109.708244 -75.67785 0.0
v -124.9931 -479.41595 0.0
v -146.2431 -456.29095 0.0
v -146.2431 -479.41595 0.0
v -124.9931 -456.29095 0.0
v 136.66992 -454.06137 0.0
v 120.419914 -425.93637 0.0
v 120.419914 -454.06137 0.0
v 136.66992 -425.93637 0.0
v 417.80344 -473.26437 0.0
v 364.05344 -423.88937 0.0
v 364.05344 -473.26437 0.0
v 417.80344 -423.88937 0.0
v 115.79272 66.52759 0.0
v 75.16772 88.40259 0.0
v 75.16772 66.52759 0.0
v 115.79272 88.40259 0.0
v -118.37853 -265.24405 0.0
v -162.12854 -234.61903 0.0
v -162.12854 -265.24405 0.0
v -118.37853 -234.61903 0.0
v 159.59511 -249.12329 0.0
v 107.0951 -220.37329 0.0
v 107.0951 -249.12329 0.0
v 159.59511 -220.37329 0.0
v 418.55243 -246.52132 0.0
v 363.55243 -207.77132 0.0
v 363.55243 -246.52132 0.0
v 418.55243 -207.77132 0.0
v -118.95861 -82.556335 0.0
v -171.45862 -40.056335 0.0
v -171.45862 -82.556335 0.0
v -118.95861 -40.056335 0.0
v -108.01807 103.991936 0.0
v -173.01807 144.61694 0.0
v -173.01807 103.991936 0.0
v -108.01807 144.61694 0.0
v 758.46106 -90.56771 0.0
v 560.33606 129.43228 0.0
v 560.33606 -90.56771 0.0
v 758.46106 129.43228 0.0
v -82.613525 263.22437 0.0
v -187.61353 360.09937 0.0
v -187.61353 263.22437 0.0
v -82.613525 360.09937 0.0
v -95.021484 436.49997 0.0
v -164.39648 485.87497 0.0
v -164.39648 436.49997 0.0
v -95.021484 485.87497 0.0
v 108.54396 281.0874 0.0
v 76.66896 322.9624 0.0
v 76.66896 281.0874 0.0
v 108.54396 322.9624 0.0
v 144.15674 429.38397 0.0
v 50.40673 491.88397 0.0
v 50.40673 429.38397 0.0
v 144.15674 491.88397 0.0
v 349.5369 272.39673 0.0
v 280.1619 314.89673 0.0
v 280.1619 272.39673 0.0
v 349.5369 314.89673 0.0
v 353.53687 422.65768 0.0
v 269.78687 490.78268 0.0
v 269.78687 422.65768 0.0
v 353.53687 490.78268 0.0
vn 0.0 0.0 1.0
vn 0.0 0.0 1.0
vn 0.0 0.0 1.0
vn 0.0 0.0 1.0
vn 0.0 0.0 1.0
vn 0.0 0.0 1.0
vn 0.0 0.0 1.0
vn 0.0 0.0 1.0
vn 0.0 0.0 1.0
vn 0.0 0.0 1.0
vn 0.0 0.0 1.0
vn 0.0 0.0 1.0
vn 0.0 0.0 1.0
vn 0.0 0.0 1.0
vn 0.0 0.0 1.0
vn 0.0 0.0 1.0
vn 0.0 0.0 1.0
vn 0.0 0.0 1.0
vn 0.0 0.0 1.0
vn 0.0 0.0 1.0
vn 0.0 0.0 1.0
vn 0.0 0.0 1.0
vn 0.0 0.0 1.0
vn 0.0 0.0 1.0
vn 0.0 0.0 1.0
vn 0.0 0.0 1.0
vn 0.0 0.0 1.0
vn 0.0 0.0 1.0
vn 0.0 0.0 1.0
vn 0.0 0.0 1.0
vn 0.0 0.0 1.0
vn 0.0 0.0 1.0
vn 0.0 0.0 1.0
vn 0.0 0.0 1.0
vn 0.0 0.0 1.0
vn 0.0 0.0 1.0
vn 0.0 0.0 1.0
vn 0.0 0.0 1.0
vn 0.0 0.0 1.0
vn 0.0 0.0 1.0
vn 0.0 0.0 1.0
vn 0.0 0.0 1.0
vn 0.0 0.0 1.0
vn 0.0 0.0 1.0
vn 0.0 0.0 1.0
vn 0.0 0.0 1.0
vn 0.0 0.0 1.0
vn 0.0 0.0 1.0
vn 0.0 0.0 1.0
vn 0.0 0.0 1.0
vn 0.0 0.0 1.0
vn 0.0 0.0 1.0
vn 0.0 0.0 1.0
vn 0.0 0.0 1.0
vn 0.0 0.0 1.0
vn 0.0 0.0 1.0
vn 0.0 0.0 1.0
vn 0.0 0.0 1.0
vn 0.0 0.0 1.0
vn 0.0 0.0 1.0
vn 0.0 0.0 1.0
vn 0.0 0.0 1.0
vn 0.0 0.0 1.0
vn 0.0 0.0 1.0
vn 0.0 0.0 1.0
vn 0.0 0.0 1.0
vn 0.0 0.0 1.0
vn 0.0 0.0 1.0
vt 0.8105469 0.29296875
vt 0.87109375 0.33789062
vt 0.87109375 0.29296875
vt 0.8105469 0.33789062
vt 0.8105469 0.34179688
vt 0.8691406 0.40625
vt 0.8691406 0.34179688
vt 0.8105469 0.40625
vt 0.92578125 0.44726562
vt 0.97265625 0.52734375
vt 0.97265625 0.44726562
vt 0.92578125 0.52734375
vt 0.83203125 0.8574219
vt 0.9824219 0.99609375
vt 0.9824219 0.8574219
vt 0.83203125 0.99609375
vt 0.15625 0.033203125
vt 0.26953125 0.095703125
vt 0.26953125 0.033203125
vt 0.15625 0.095703125
vt 0.83203125 0.53125
vt 0.9550781 0.6171875
vt 0.9550781 0.53125
vt 0.83203125 0.6171875
vt 0.00390625 0.015625
vt 0.15234375 0.095703125
vt 0.15234375 0.015625
vt 0.00390625 0.095703125
vt 0.83203125 0.62109375
vt 0.9863281 0.73046875
vt 0.9863281 0.62109375
vt 0.83203125 0.73046875
vt 0.83203125 0.734375
vt 0.98046875 0.8535156
vt 0.98046875 0.734375
vt 0.83203125 0.8535156
vt 0.5703125 0.00390625
vt 0.75390625 0.119140625
vt 0.75390625 0.00390625
vt 0.5703125 0.119140625
vt 0.00390625 0.37695312
vt 0.5605469 0.99609375
vt 0.5605469 0.37695312
vt 0.00390625 0.99609375
vt 0.00390625 0.099609375
vt 0.29882812 0.37304688
vt 0.29882812 0.099609375
vt 0.00390625 0.37304688
vt 0.5703125 0.123046875
vt 0.765625 0.26171875
vt 0.765625 0.123046875
vt 0.5703125 0.26171875
vt 0.83203125 0.41015625
vt 0.921875 0.52734375
vt 0.921875 0.41015625
vt 0.83203125 0.52734375
vt 0.30273438 0.017578125
vt 0.56640625 0.19335938
vt 0.56640625 0.017578125
vt 0.30273438 0.19335938
vt 0.76953125 0.140625
vt 0.96484375 0.26171875
vt 0.96484375 0.140625
vt 0.76953125 0.26171875
vt 0.5703125 0.265625
vt 0.8066406 0.45703125
vt 0.8066406 0.265625
vt 0.5703125 0.45703125

o NPC_Skin
s 1
usemtl NPC_Skin_0
f 1/1/1 2/2/2 3/3/3
f 1/1/1 4/4/4 2/2/2
f 5/5/5 6/6/6 7/7/7
f 5/5/5 8/8/8 6/6/6
f 9/9/9 10/10/10 11/11/11
f 9/9/9 12/12/12 10/10/10
f 13/13/13 14/14/14 15/15/15
f 13/13/13 16/16/16 14/14/14
f 17/17/17 18/18/18 19/19/19
f 17/17/17 20/20/20 18/18/18
f 21/21/21 22/22/22 23/23/23
f 21/21/21 24/24/24 22/22/22
f 25/25/25 26/26/26 27/27/27
f 25/25/25 28/28/28 26/26/26
f 29/29/29 30/30/30 31/31/31
f 29/29/29 32/32/32 30/30/30
f 33/33/33 34/34/34 35/35/35
f 33/33/33 36/36/36 34/34/34
f 37/37/37 38/38/38 39/39/39
f 37/37/37 40/40/40 38/38/38
f 41/41/41 42/42/42 43/43/43
f 41/41/41 44/44/44 42/42/42
f 45/45/45 46/46/46 47/47/47
f 45/45/45 48/48/48 46/46/46
f 49/49/49 50/50/50 51/51/51
f 49/49/49 52/52/52 50/50/50
f 53/53/53 54/54/54 55/55/55
f 53/53/53 56/56/56 54/54/54
f 57/57/57 58/58/58 59/59/59
f 57/57/57 60/60/60 58/58/58
f 61/61/61 62/62/62 63/63/63
f 61/61/61 64/64/64 62/62/62
f 65/65/65 66/66/66 67/67/67
f 65/65/65 68/68/68 66/66/66

