# Created by DisUnity v0.3.0
v -1717.0515 -1876.7767 0.0
v -1781.667 -1396.7767 0.0
v -1781.667 -1876.7767 0.0
v -1717.0515 -1396.7767 0.0
v -684.82745 -1797.9178 0.0
v -943.289 -1440.9948 0.0
v -943.289 -1797.9178 0.0
v -684.82745 -1440.9948 0.0
v 502.10547 -1723.2098 0.0
v 25.182419 -1597.056 0.0
v 25.182419 -1723.2098 0.0
v 502.10547 -1597.056 0.0
v 1934.3738 -1748.3213 0.0
v 1328.22 -1563.7058 0.0
v 1328.22 -1748.3213 0.0
v 1934.3738 -1563.7058 0.0
v -1329.6874 -924.4339 0.0
v -1397.3798 -739.81854 0.0
v -1397.3798 -924.4339 0.0
v -1329.6874 -739.81854 0.0
v -477.51056 -887.0149 0.0
v -560.58746 -785.47644 0.0
v -560.58746 -887.0149 0.0
v -477.51056 -785.47644 0.0
v 633.94867 -937.4269 0.0
v 569.3333 -768.19604 0.0
v 569.3333 -937.4269 0.0
v 633.94867 -768.19604 0.0
v 1666.0104 -937.7395 0.0
v 1558.318 -756.20105 0.0
v 1558.318 -937.7395 0.0
v 1666.0104 -756.20105 0.0
v -1312.836 -103.07692 0.0
v -1414.3746 103.07692 0.0
v -1414.3746 -103.07692 0.0
v -1312.836 103.07692 0.0
v -477.03024 -53.846153 0.0
v -550.8764 53.846153 0.0
v -550.8764 -53.846153 0.0
v -477.03024 53.846153 0.0
v 641.0418 -147.32108 0.0
v 554.888 18.832756 0.0
v 554.888 -147.32108 0.0
v 641.0418 18.832756 0.0
v 1647.6807 -154.56024 0.0
v 1607.6807 -59.17562 0.0
v 1607.6807 -154.56024 0.0
v 1647.6807 -59.17562 0.0
v -1318.9956 551.9768 0.0
v -1426.688 730.43835 0.0
v -1426.688 551.9768 0.0
v -1318.9956 730.43835 0.0
v -377.84308 568.17554 0.0
v -642.4585 749.714 0.0
v -642.4585 568.17554 0.0
v -377.84308 749.714 0.0
v 674.8087 480.76538 0.0
v 416.34717 794.6116 0.0
v 416.34717 480.76538 0.0
v 674.8087 794.6116 0.0
v 1792.3582 487.89337 0.0
v 1367.7427 872.5087 0.0
v 1367.7427 487.89337 0.0
v 1792.3582 872.5087 0.0
v -1305.6244 1429.2812 0.0
v -1401.0089 1730.8196 0.0
v -1401.0089 1429.2812 0.0
v -1305.6244 1730.8196 0.0
v 220.0 2283.4832 0.0
v -220.0 2883.4832 0.0
v -220.0 2283.4832 0.0
v 220.0 2883.4832 0.0
v -411.67285 1446.5079 0.0
v -550.1344 1711.1234 0.0
v -550.1344 1446.5079 0.0
v -411.67285 1711.1234 0.0
v 649.8661 1409.8992 0.0
v 520.63525 1711.4375 0.0
v 520.63525 1409.8992 0.0
v 649.8661 1711.4375 0.0
v 1671.7987 1417.2449 0.0
v 1533.3373 1688.0142 0.0
v 1533.3373 1417.2449 0.0
v 1671.7987 1688.0142 0.0
vn 0.0 0.0 1.0
vn 0.0 0.0 1.0
vn 0.0 0.0 1.0
vn 0.0 0.0 1.0
vn 0.0 0.0 1.0
vn 0.0 0.0 1.0
vn 0.0 0.0 1.0
vn 0.0 0.0 1.0
vn 0.0 0.0 1.0
vn 0.0 0.0 1.0
vn 0.0 0.0 1.0
vn 0.0 0.0 1.0
vn 0.0 0.0 1.0
vn 0.0 0.0 1.0
vn 0.0 0.0 1.0
vn 0.0 0.0 1.0
vn 0.0 0.0 1.0
vn 0.0 0.0 1.0
vn 0.0 0.0 1.0
vn 0.0 0.0 1.0
vn 0.0 0.0 1.0
vn 0.0 0.0 1.0
vn 0.0 0.0 1.0
vn 0.0 0.0 1.0
vn 0.0 0.0 1.0
vn 0.0 0.0 1.0
vn 0.0 0.0 1.0
vn 0.0 0.0 1.0
vn 0.0 0.0 1.0
vn 0.0 0.0 1.0
vn 0.0 0.0 1.0
vn 0.0 0.0 1.0
vn 0.0 0.0 1.0
vn 0.0 0.0 1.0
vn 0.0 0.0 1.0
vn 0.0 0.0 1.0
vn 0.0 0.0 1.0
vn 0.0 0.0 1.0
vn 0.0 0.0 1.0
vn 0.0 0.0 1.0
vn 0.0 0.0 1.0
vn 0.0 0.0 1.0
vn 0.0 0.0 1.0
vn 0.0 0.0 1.0
vn 0.0 0.0 1.0
vn 0.0 0.0 1.0
vn 0.0 0.0 1.0
vn 0.0 0.0 1.0
vn 0.0 0.0 1.0
vn 0.0 0.0 1.0
vn 0.0 0.0 1.0
vn 0.0 0.0 1.0
vn 0.0 0.0 1.0
vn 0.0 0.0 1.0
vn 0.0 0.0 1.0
vn 0.0 0.0 1.0
vn 0.0 0.0 1.0
vn 0.0 0.0 1.0
vn 0.0 0.0 1.0
vn 0.0 0.0 1.0
vn 0.0 0.0 1.0
vn 0.0 0.0 1.0
vn 0.0 0.0 1.0
vn 0.0 0.0 1.0
vn 0.0 0.0 1.0
vn 0.0 0.0 1.0
vn 0.0 0.0 1.0
vn 0.0 0.0 1.0
vn 0.0 0.0 1.0
vn 0.0 0.0 1.0
vn 0.0 0.0 1.0
vn 0.0 0.0 1.0
vn 0.0 0.0 1.0
vn 0.0 0.0 1.0
vn 0.0 0.0 1.0
vn 0.0 0.0 1.0
vn 0.0 0.0 1.0
vn 0.0 0.0 1.0
vn 0.0 0.0 1.0
vn 0.0 0.0 1.0
vn 0.0 0.0 1.0
vn 0.0 0.0 1.0
vn 0.0 0.0 1.0
vn 0.0 0.0 1.0
vt 0.8535156 0.69140625
vt 0.89453125 0.99609375
vt 0.89453125 0.69140625
vt 0.8535156 0.99609375
vt 0.73828125 0.13671875
vt 0.90234375 0.36328125
vt 0.90234375 0.13671875
vt 0.73828125 0.36328125
vt 0.00390625 0.025390625
vt 0.30664062 0.10546875
vt 0.30664062 0.025390625
vt 0.00390625 0.10546875
vt 0.00390625 0.109375
vt 0.38867188 0.2265625
vt 0.38867188 0.109375
vt 0.00390625 0.2265625
vt 0.90625 0.091796875
vt 0.94921875 0.20898438
vt 0.94921875 0.091796875
vt 0.90625 0.20898438
vt 0.31054688 0.041015625
vt 0.36328125 0.10546875
vt 0.36328125 0.041015625
vt 0.31054688 0.10546875
vt 0.953125 0.1015625
vt 0.9941406 0.20898438
vt 0.9941406 0.1015625
vt 0.953125 0.20898438
vt 0.63671875 0.044921875
vt 0.7050781 0.16015625
vt 0.7050781 0.044921875
vt 0.63671875 0.16015625
vt 0.9082031 0.32226562
vt 0.97265625 0.453125
vt 0.97265625 0.32226562
vt 0.9082031 0.453125
vt 0.8535156 0.6191406
vt 0.9003906 0.6875
vt 0.9003906 0.6191406
vt 0.8535156 0.6875
vt 0.90625 0.21289062
vt 0.9609375 0.31835938
vt 0.9609375 0.21289062
vt 0.90625 0.31835938
vt 0.7089844 0.099609375
vt 0.734375 0.16015625
vt 0.734375 0.099609375
vt 0.7089844 0.16015625
vt 0.5644531 0.046875
vt 0.6328125 0.16015625
vt 0.6328125 0.046875
vt 0.5644531 0.16015625
vt 0.39257812 0.11132813
vt 0.5605469 0.2265625
vt 0.5605469 0.11132813
vt 0.39257812 0.2265625
vt 0.5703125 0.1640625
vt 0.734375 0.36328125
vt 0.734375 0.1640625
vt 0.5703125 0.36328125
vt 0.5703125 0.3671875
vt 0.83984375 0.6113281
vt 0.83984375 0.3671875
vt 0.5703125 0.6113281
vt 0.84375 0.41992188
vt 0.9042969 0.6113281
vt 0.9042969 0.41992188
vt 0.84375 0.6113281
vt 0.5703125 0.6152344
vt 0.8496094 0.99609375
vt 0.8496094 0.6152344
vt 0.5703125 0.99609375
vt 0.9082031 0.45703125
vt 0.99609375 0.625
vt 0.99609375 0.45703125
vt 0.9082031 0.625
vt 0.8984375 0.8046875
vt 0.98046875 0.99609375
vt 0.98046875 0.8046875
vt 0.8984375 0.99609375
vt 0.9082031 0.62890625
vt 0.99609375 0.80078125
vt 0.99609375 0.62890625
vt 0.9082031 0.80078125

o NPC_Skin
s 1
usemtl NPC_Skin_0
f 1/1/1 2/2/2 3/3/3
f 1/1/1 4/4/4 2/2/2
f 5/5/5 6/6/6 7/7/7
f 5/5/5 8/8/8 6/6/6
f 9/9/9 10/10/10 11/11/11
f 9/9/9 12/12/12 10/10/10
f 13/13/13 14/14/14 15/15/15
f 13/13/13 16/16/16 14/14/14
f 17/17/17 18/18/18 19/19/19
f 17/17/17 20/20/20 18/18/18
f 21/21/21 22/22/22 23/23/23
f 21/21/21 24/24/24 22/22/22
f 25/25/25 26/26/26 27/27/27
f 25/25/25 28/28/28 26/26/26
f 29/29/29 30/30/30 31/31/31
f 29/29/29 32/32/32 30/30/30
f 33/33/33 34/34/34 35/35/35
f 33/33/33 36/36/36 34/34/34
f 37/37/37 38/38/38 39/39/39
f 37/37/37 40/40/40 38/38/38
f 41/41/41 42/42/42 43/43/43
f 41/41/41 44/44/44 42/42/42
f 45/45/45 46/46/46 47/47/47
f 45/45/45 48/48/48 46/46/46
f 49/49/49 50/50/50 51/51/51
f 49/49/49 52/52/52 50/50/50
f 53/53/53 54/54/54 55/55/55
f 53/53/53 56/56/56 54/54/54
f 57/57/57 58/58/58 59/59/59
f 57/57/57 60/60/60 58/58/58
f 61/61/61 62/62/62 63/63/63
f 61/61/61 64/64/64 62/62/62
f 65/65/65 66/66/66 67/67/67
f 65/65/65 68/68/68 66/66/66
f 69/69/69 70/70/70 71/71/71
f 69/69/69 72/72/72 70/70/70
f 73/73/73 74/74/74 75/75/75
f 73/73/73 76/76/76 74/74/74
f 77/77/77 78/78/78 79/79/79
f 77/77/77 80/80/80 78/78/78
f 81/81/81 82/82/82 83/83/83
f 81/81/81 84/84/84 82/82/82

