# Created by DisUnity v0.3.0
v 308.192 -358.1645 0.0
v 213.81699 -240.66449 0.0
v 213.81699 -358.1645 0.0
v 308.192 -240.66449 0.0
v -188.7436 -283.3341 0.0
v -196.2436 -261.4591 0.0
v -196.2436 -283.3341 0.0
v -188.7436 -261.4591 0.0
v -233.49835 -102.63452 0.0
v -243.49835 -81.38452 0.0
v -243.49835 -102.63452 0.0
v -233.49835 -81.38452 0.0
v -280.33945 155.56537 0.0
v -300.96445 171.81537 0.0
v -300.96445 155.56537 0.0
v -280.33945 171.81537 0.0
v 36.73741 -242.98582 0.0
v 27.987411 -216.73582 0.0
v 27.987411 -242.98582 0.0
v 36.73741 -216.73582 0.0
v 58.14242 -26.581661 0.0
v 45.01742 -1.5816612 0.0
v 45.01742 -26.581661 0.0
v 58.14242 -1.5816612 0.0
v 60.23089 111.94059 0.0
v 35.23089 134.44058 0.0
v 35.23089 111.94059 0.0
v 60.23089 134.44058 0.0
v 205.53474 -144.38058 0.0
v 178.65974 -110.63059 0.0
v 178.65974 -144.38058 0.0
v 205.53474 -110.63059 0.0
v 298.6057 5.8070297 0.0
v 266.1057 42.05703 0.0
v 266.1057 5.8070297 0.0
v 298.6057 42.05703 0.0
v 244.35538 131.36314 0.0
v 184.35538 178.23814 0.0
v 184.35538 131.36314 0.0
v 244.35538 178.23814 0.0
v 92.81723 251.4602 0.0
v 64.06723 269.5852 0.0
v 64.06723 251.4602 0.0
v 92.81723 269.5852 0.0
v -80.83084 -191.30048 0.0
v -114.58084 -136.92548 0.0
v -114.58084 -191.30048 0.0
v -80.83084 -136.92548 0.0
v -66.523766 251.04373 0.0
v -129.02377 289.79373 0.0
v -129.02377 251.04373 0.0
v -66.523766 289.79373 0.0
v -64.93988 -28.001904 0.0
v -167.43988 91.99809 0.0
v -167.43988 -28.001904 0.0
v -64.93988 91.99809 0.0
vn 0.0 0.0 1.0
vn 0.0 0.0 1.0
vn 0.0 0.0 1.0
vn 0.0 0.0 1.0
vn 0.0 0.0 1.0
vn 0.0 0.0 1.0
vn 0.0 0.0 1.0
vn 0.0 0.0 1.0
vn 0.0 0.0 1.0
vn 0.0 0.0 1.0
vn 0.0 0.0 1.0
vn 0.0 0.0 1.0
vn 0.0 0.0 1.0
vn 0.0 0.0 1.0
vn 0.0 0.0 1.0
vn 0.0 0.0 1.0
vn 0.0 0.0 1.0
vn 0.0 0.0 1.0
vn 0.0 0.0 1.0
vn 0.0 0.0 1.0
vn 0.0 0.0 1.0
vn 0.0 0.0 1.0
vn 0.0 0.0 1.0
vn 0.0 0.0 1.0
vn 0.0 0.0 1.0
vn 0.0 0.0 1.0
vn 0.0 0.0 1.0
vn 0.0 0.0 1.0
vn 0.0 0.0 1.0
vn 0.0 0.0 1.0
vn 0.0 0.0 1.0
vn 0.0 0.0 1.0
vn 0.0 0.0 1.0
vn 0.0 0.0 1.0
vn 0.0 0.0 1.0
vn 0.0 0.0 1.0
vn 0.0 0.0 1.0
vn 0.0 0.0 1.0
vn 0.0 0.0 1.0
vn 0.0 0.0 1.0
vn 0.0 0.0 1.0
vn 0.0 0.0 1.0
vn 0.0 0.0 1.0
vn 0.0 0.0 1.0
vn 0.0 0.0 1.0
vn 0.0 0.0 1.0
vn 0.0 0.0 1.0
vn 0.0 0.0 1.0
vn 0.0 0.0 1.0
vn 0.0 0.0 1.0
vn 0.0 0.0 1.0
vn 0.0 0.0 1.0
vn 0.0 0.0 1.0
vn 0.0 0.0 1.0
vn 0.0 0.0 1.0
vn 0.0 0.0 1.0
vt 0.66796875 0.23242188
vt 0.9707031 0.609375
vt 0.9707031 0.23242188
vt 0.66796875 0.609375
vt 0.4921875 0.15234375
vt 0.5175781 0.22265625
vt 0.5175781 0.15234375
vt 0.4921875 0.22265625
vt 0.4921875 0.08203125
vt 0.5234375 0.1484375
vt 0.5234375 0.08203125
vt 0.4921875 0.1484375
vt 0.00390625 0.015625
vt 0.0703125 0.068359375
vt 0.0703125 0.015625
vt 0.00390625 0.068359375
vt 0.30664062 0.076171875
vt 0.3359375 0.16015625
vt 0.3359375 0.076171875
vt 0.30664062 0.16015625
vt 0.33984375 0.080078125
vt 0.3828125 0.16015625
vt 0.3828125 0.080078125
vt 0.33984375 0.16015625
vt 0.19921875 0.033203125
vt 0.27929688 0.103515625
vt 0.27929688 0.033203125
vt 0.19921875 0.103515625
vt 0.40234375 0.115234375
vt 0.48828125 0.22265625
vt 0.48828125 0.115234375
vt 0.40234375 0.22265625
vt 0.19921875 0.107421875
vt 0.30273438 0.22265625
vt 0.30273438 0.107421875
vt 0.19921875 0.22265625
vt 0.00390625 0.072265625
vt 0.1953125 0.22265625
vt 0.1953125 0.072265625
vt 0.00390625 0.22265625
vt 0.30664062 0.1640625
vt 0.3984375 0.22265625
vt 0.3984375 0.1640625
vt 0.30664062 0.22265625
vt 0.8730469 0.0546875
vt 0.9824219 0.22851562
vt 0.9824219 0.0546875
vt 0.8730469 0.22851562
vt 0.66796875 0.103515625
vt 0.8691406 0.22851562
vt 0.8691406 0.103515625
vt 0.66796875 0.22851562
vt 0.3359375 0.2265625
vt 0.6640625 0.609375
vt 0.6640625 0.2265625
vt 0.3359375 0.609375

o NPC_Skin
s 1
usemtl NPC_Skin_0
f 1/1/1 2/2/2 3/3/3
f 1/1/1 4/4/4 2/2/2
f 5/5/5 6/6/6 7/7/7
f 5/5/5 8/8/8 6/6/6
f 9/9/9 10/10/10 11/11/11
f 9/9/9 12/12/12 10/10/10
f 13/13/13 14/14/14 15/15/15
f 13/13/13 16/16/16 14/14/14
f 17/17/17 18/18/18 19/19/19
f 17/17/17 20/20/20 18/18/18
f 21/21/21 22/22/22 23/23/23
f 21/21/21 24/24/24 22/22/22
f 25/25/25 26/26/26 27/27/27
f 25/25/25 28/28/28 26/26/26
f 29/29/29 30/30/30 31/31/31
f 29/29/29 32/32/32 30/30/30
f 33/33/33 34/34/34 35/35/35
f 33/33/33 36/36/36 34/34/34
f 37/37/37 38/38/38 39/39/39
f 37/37/37 40/40/40 38/38/38
f 41/41/41 42/42/42 43/43/43
f 41/41/41 44/44/44 42/42/42
f 45/45/45 46/46/46 47/47/47
f 45/45/45 48/48/48 46/46/46
f 49/49/49 50/50/50 51/51/51
f 49/49/49 52/52/52 50/50/50
f 53/53/53 54/54/54 55/55/55
f 53/53/53 56/56/56 54/54/54

