# Created by DisUnity v0.3.0
v 109.93931 -91.71097 0.0
v 88.522606 -75.82115 0.0
v 88.522606 -91.71097 0.0
v 109.93931 -75.82115 0.0
v 291.82837 -1.4495525 0.0
v 272.48425 23.421457 0.0
v 272.48425 -1.4495525 0.0
v 291.82837 23.421457 0.0
v -124.96035 -479.14807 0.0
v -145.68619 -456.34967 0.0
v -145.68619 -479.14807 0.0
v -124.96035 -456.34967 0.0
v 139.9358 -453.75763 0.0
v 120.587814 -419.89862 0.0
v 120.587814 -453.75763 0.0
v 139.9358 -419.89862 0.0
v 416.6302 -474.35992 0.0
v 364.1247 -422.54535 0.0
v 364.1247 -474.35992 0.0
v 416.6302 -422.54535 0.0
v 115.23086 66.41862 0.0
v 75.1609 88.52618 0.0
v 75.1609 66.41862 0.0
v 115.23086 88.52618 0.0
v -118.74585 -265.4335 0.0
v -162.27011 -235.03561 0.0
v -162.27011 -265.4335 0.0
v -118.74585 -235.03561 0.0
v 159.39142 -248.74707 0.0
v 106.885956 -220.42175 0.0
v 106.885956 -248.74707 0.0
v 159.39142 -220.42175 0.0
v 418.40692 -246.52939 0.0
v 363.82886 -207.84116 0.0
v 363.82886 -246.52939 0.0
v 418.40692 -207.84116 0.0
v -118.96657 -82.29022 0.0
v -171.47203 -40.147675 0.0
v -171.47203 -82.29022 0.0
v -118.96657 -40.147675 0.0
v -108.21828 103.518875 0.0
v -173.15926 144.2797 0.0
v -173.15926 103.518875 0.0
v -108.21828 144.2797 0.0
v 758.07043 -89.46578 0.0
v 561.1749 129.53728 0.0
v 561.1749 -89.46578 0.0
v 758.07043 129.53728 0.0
v -83.178406 263.23203 0.0
v -187.49847 359.9526 0.0
v -187.49847 263.23203 0.0
v -83.178406 359.9526 0.0
v -94.900604 437.12302 0.0
v -163.98676 486.17416 0.0
v -163.98676 437.12302 0.0
v -94.900604 486.17416 0.0
v 108.55261 281.63974 0.0
v 76.77298 323.0914 0.0
v 76.77298 281.63974 0.0
v 108.55261 323.0914 0.0
v 144.28209 429.4836 0.0
v 51.015797 491.66116 0.0
v 51.015797 429.4836 0.0
v 144.28209 491.66116 0.0
v 353.896 423.17264 0.0
v 270.30176 490.87704 0.0
v 270.30176 423.17264 0.0
v 353.896 490.87704 0.0
v 350.0557 272.16934 0.0
v 280.26468 315.01132 0.0
v 280.26468 272.16934 0.0
v 350.0557 315.01132 0.0
vn 0.0 0.0 1.0
vn 0.0 0.0 1.0
vn 0.0 0.0 1.0
vn 0.0 0.0 1.0
vn 0.0 0.0 1.0
vn 0.0 0.0 1.0
vn 0.0 0.0 1.0
vn 0.0 0.0 1.0
vn 0.0 0.0 1.0
vn 0.0 0.0 1.0
vn 0.0 0.0 1.0
vn 0.0 0.0 1.0
vn 0.0 0.0 1.0
vn 0.0 0.0 1.0
vn 0.0 0.0 1.0
vn 0.0 0.0 1.0
vn 0.0 0.0 1.0
vn 0.0 0.0 1.0
vn 0.0 0.0 1.0
vn 0.0 0.0 1.0
vn 0.0 0.0 1.0
vn 0.0 0.0 1.0
vn 0.0 0.0 1.0
vn 0.0 0.0 1.0
vn 0.0 0.0 1.0
vn 0.0 0.0 1.0
vn 0.0 0.0 1.0
vn 0.0 0.0 1.0
vn 0.0 0.0 1.0
vn 0.0 0.0 1.0
vn 0.0 0.0 1.0
vn 0.0 0.0 1.0
vn 0.0 0.0 1.0
vn 0.0 0.0 1.0
vn 0.0 0.0 1.0
vn 0.0 0.0 1.0
vn 0.0 0.0 1.0
vn 0.0 0.0 1.0
vn 0.0 0.0 1.0
vn 0.0 0.0 1.0
vn 0.0 0.0 1.0
vn 0.0 0.0 1.0
vn 0.0 0.0 1.0
vn 0.0 0.0 1.0
vn 0.0 0.0 1.0
vn 0.0 0.0 1.0
vn 0.0 0.0 1.0
vn 0.0 0.0 1.0
vn 0.0 0.0 1.0
vn 0.0 0.0 1.0
vn 0.0 0.0 1.0
vn 0.0 0.0 1.0
vn 0.0 0.0 1.0
vn 0.0 0.0 1.0
vn 0.0 0.0 1.0
vn 0.0 0.0 1.0
vn 0.0 0.0 1.0
vn 0.0 0.0 1.0
vn 0.0 0.0 1.0
vn 0.0 0.0 1.0
vn 0.0 0.0 1.0
vn 0.0 0.0 1.0
vn 0.0 0.0 1.0
vn 0.0 0.0 1.0
vn 0.0 0.0 1.0
vn 0.0 0.0 1.0
vn 0.0 0.0 1.0
vn 0.0 0.0 1.0
vn 0.0 0.0 1.0
vn 0.0 0.0 1.0
vn 0.0 0.0 1.0
vn 0.0 0.0 1.0
vt 0.76953125 0.091796875
vt 0.8300781 0.13671875
vt 0.8300781 0.091796875
vt 0.76953125 0.13671875
vt 0.8105469 0.265625
vt 0.8652344 0.3359375
vt 0.8652344 0.265625
vt 0.8105469 0.3359375
vt 0.8691406 0.27148438
vt 0.9277344 0.3359375
vt 0.9277344 0.27148438
vt 0.8691406 0.3359375
vt 0.9042969 0.36328125
vt 0.9589844 0.45898438
vt 0.9589844 0.36328125
vt 0.9042969 0.45898438
vt 0.83203125 0.8496094
vt 0.98046875 0.99609375
vt 0.98046875 0.8496094
vt 0.83203125 0.99609375
vt 0.83203125 0.46289062
vt 0.9453125 0.5253906
vt 0.9453125 0.46289062
vt 0.83203125 0.5253906
vt 0.15625 0.009765625
vt 0.27929688 0.095703125
vt 0.27929688 0.009765625
vt 0.15625 0.095703125
vt 0.83203125 0.5292969
vt 0.98046875 0.609375
vt 0.98046875 0.5292969
vt 0.83203125 0.609375
vt 0.83203125 0.61328125
vt 0.9863281 0.72265625
vt 0.9863281 0.61328125
vt 0.83203125 0.72265625
vt 0.83203125 0.7265625
vt 0.98046875 0.8457031
vt 0.98046875 0.7265625
vt 0.83203125 0.8457031
vt 0.5703125 0.00390625
vt 0.75390625 0.119140625
vt 0.75390625 0.00390625
vt 0.5703125 0.119140625
vt 0.00390625 0.37695312
vt 0.5605469 0.99609375
vt 0.5605469 0.37695312
vt 0.00390625 0.99609375
vt 0.00390625 0.099609375
vt 0.29882812 0.37304688
vt 0.29882812 0.099609375
vt 0.00390625 0.37304688
vt 0.5703125 0.123046875
vt 0.765625 0.26171875
vt 0.765625 0.123046875
vt 0.5703125 0.26171875
vt 0.8105469 0.33984375
vt 0.9003906 0.45703125
vt 0.9003906 0.33984375
vt 0.8105469 0.45703125
vt 0.30273438 0.017578125
vt 0.56640625 0.19335938
vt 0.56640625 0.017578125
vt 0.30273438 0.19335938
vt 0.5703125 0.265625
vt 0.8066406 0.45703125
vt 0.8066406 0.265625
vt 0.5703125 0.45703125
vt 0.76953125 0.140625
vt 0.9667969 0.26171875
vt 0.9667969 0.140625
vt 0.76953125 0.26171875

o NPC_Skin
s 1
usemtl NPC_Skin_0
f 1/1/1 2/2/2 3/3/3
f 1/1/1 4/4/4 2/2/2
f 5/5/5 6/6/6 7/7/7
f 5/5/5 8/8/8 6/6/6
f 9/9/9 10/10/10 11/11/11
f 9/9/9 12/12/12 10/10/10
f 13/13/13 14/14/14 15/15/15
f 13/13/13 16/16/16 14/14/14
f 17/17/17 18/18/18 19/19/19
f 17/17/17 20/20/20 18/18/18
f 21/21/21 22/22/22 23/23/23
f 21/21/21 24/24/24 22/22/22
f 25/25/25 26/26/26 27/27/27
f 25/25/25 28/28/28 26/26/26
f 29/29/29 30/30/30 31/31/31
f 29/29/29 32/32/32 30/30/30
f 33/33/33 34/34/34 35/35/35
f 33/33/33 36/36/36 34/34/34
f 37/37/37 38/38/38 39/39/39
f 37/37/37 40/40/40 38/38/38
f 41/41/41 42/42/42 43/43/43
f 41/41/41 44/44/44 42/42/42
f 45/45/45 46/46/46 47/47/47
f 45/45/45 48/48/48 46/46/46
f 49/49/49 50/50/50 51/51/51
f 49/49/49 52/52/52 50/50/50
f 53/53/53 54/54/54 55/55/55
f 53/53/53 56/56/56 54/54/54
f 57/57/57 58/58/58 59/59/59
f 57/57/57 60/60/60 58/58/58
f 61/61/61 62/62/62 63/63/63
f 61/61/61 64/64/64 62/62/62
f 65/65/65 66/66/66 67/67/67
f 65/65/65 68/68/68 66/66/66
f 69/69/69 70/70/70 71/71/71
f 69/69/69 72/72/72 70/70/70

