# Created by DisUnity v0.3.0
v 262.64325 411.94324 0.0
v 240.14322 429.94324 0.0
v 240.14322 411.94324 0.0
v 262.64325 429.94324 0.0
v 265.64624 209.23106 0.0
v 232.64624 230.23106 0.0
v 232.64624 209.23106 0.0
v 265.64624 230.23106 0.0
v 245.19937 -74.854355 0.0
v 233.69937 -45.85436 0.0
v 233.69937 -74.854355 0.0
v 245.19937 -45.85436 0.0
v 235.20688 -462.20673 0.0
v 223.20688 -432.20673 0.0
v 223.20688 -462.20673 0.0
v 235.20688 -432.20673 0.0
v 241.50084 -261.81854 0.0
v 223.50084 -249.31854 0.0
v 223.50084 -261.81854 0.0
v 241.50084 -249.31854 0.0
v 2.2111714 -110.83643 0.0
v -11.788829 -79.83643 0.0
v -11.788829 -110.83643 0.0
v 2.2111714 -79.83643 0.0
v 7.8646207 -465.10522 0.0
v -6.1353793 -435.10522 0.0
v -6.1353793 -465.10522 0.0
v 7.8646207 -435.10522 0.0
v -5.214998 -269.7308 0.0
v -24.214996 -255.73082 0.0
v -24.214996 -269.7308 0.0
v -5.214998 -255.73082 0.0
v -263.4448 -204.25389 0.0
v -321.4448 -171.25389 0.0
v -321.4448 -204.25389 0.0
v -263.4448 -171.25389 0.0
v -263.875 -9.0573845 0.0
v -313.375 52.942616 0.0
v -313.375 -9.0573845 0.0
v -263.875 52.942616 0.0
v 28.112034 181.38171 0.0
v -99.38797 304.8817 0.0
v -99.38797 181.38171 0.0
v 28.112034 304.8817 0.0
v -271.86194 394.48175 0.0
v -293.86194 414.98175 0.0
v -293.86194 394.48175 0.0
v -271.86194 414.98175 0.0
v -277.7211 197.33527 0.0
v -308.7211 222.83527 0.0
v -308.7211 197.33527 0.0
v -277.7211 222.83527 0.0
v -264.97098 -467.05356 0.0
v -301.97098 -440.05356 0.0
v -301.97098 -467.05356 0.0
v -264.97098 -440.05356 0.0
v -580.3665 -419.96057 0.0
v -642.8665 -268.46057 0.0
v -642.8665 -419.96057 0.0
v -580.3665 -268.46057 0.0
v -580.3665 -26.649109 0.0
v -642.8665 124.85089 0.0
v -642.8665 -26.649109 0.0
v -580.3665 124.85089 0.0
vn 0.0 0.0 1.0
vn 0.0 0.0 1.0
vn 0.0 0.0 1.0
vn 0.0 0.0 1.0
vn 0.0 0.0 1.0
vn 0.0 0.0 1.0
vn 0.0 0.0 1.0
vn 0.0 0.0 1.0
vn 0.0 0.0 1.0
vn 0.0 0.0 1.0
vn 0.0 0.0 1.0
vn 0.0 0.0 1.0
vn 0.0 0.0 1.0
vn 0.0 0.0 1.0
vn 0.0 0.0 1.0
vn 0.0 0.0 1.0
vn 0.0 0.0 1.0
vn 0.0 0.0 1.0
vn 0.0 0.0 1.0
vn 0.0 0.0 1.0
vn 0.0 0.0 1.0
vn 0.0 0.0 1.0
vn 0.0 0.0 1.0
vn 0.0 0.0 1.0
vn 0.0 0.0 1.0
vn 0.0 0.0 1.0
vn 0.0 0.0 1.0
vn 0.0 0.0 1.0
vn 0.0 0.0 1.0
vn 0.0 0.0 1.0
vn 0.0 0.0 1.0
vn 0.0 0.0 1.0
vn 0.0 0.0 1.0
vn 0.0 0.0 1.0
vn 0.0 0.0 1.0
vn 0.0 0.0 1.0
vn 0.0 0.0 1.0
vn 0.0 0.0 1.0
vn 0.0 0.0 1.0
vn 0.0 0.0 1.0
vn 0.0 0.0 1.0
vn 0.0 0.0 1.0
vn 0.0 0.0 1.0
vn 0.0 0.0 1.0
vn 0.0 0.0 1.0
vn 0.0 0.0 1.0
vn 0.0 0.0 1.0
vn 0.0 0.0 1.0
vn 0.0 0.0 1.0
vn 0.0 0.0 1.0
vn 0.0 0.0 1.0
vn 0.0 0.0 1.0
vn 0.0 1.0 0.0
vn 0.0 1.0 0.0
vn 0.0 1.0 0.0
vn 0.0 1.0 0.0
vn 2.093405E-5 1.20736615E-4 1.0
vn 2.093405E-5 1.20736615E-4 1.0
vn 2.093405E-5 1.20736615E-4 1.0
vn 2.093405E-5 1.20736615E-4 1.0
vn 2.0933849E-5 1.2073658E-4 1.0
vn 2.0933849E-5 1.2073658E-4 1.0
vn 2.0933849E-5 1.2073658E-4 1.0
vn 2.0933849E-5 1.2073658E-4 1.0
vt 0.15234375 0.013671875
vt 0.20898438 0.05859375
vt 0.20898438 0.013671875
vt 0.15234375 0.05859375
vt 0.00390625 0.00390625
vt 0.087890625 0.056640625
vt 0.087890625 0.00390625
vt 0.00390625 0.056640625
vt 0.27929688 0.921875
vt 0.30859375 0.99609375
vt 0.30859375 0.921875
vt 0.27929688 0.99609375
vt 0.24414062 0.9199219
vt 0.27539062 0.99609375
vt 0.27539062 0.9199219
vt 0.24414062 0.99609375
vt 0.265625 0.03125
vt 0.31054688 0.0625
vt 0.31054688 0.03125
vt 0.265625 0.0625
vt 0.16601562 0.91796875
vt 0.20117188 0.99609375
vt 0.20117188 0.91796875
vt 0.16601562 0.99609375
vt 0.20507812 0.9199219
vt 0.24023438 0.99609375
vt 0.24023438 0.9199219
vt 0.20507812 0.99609375
vt 0.21289062 0.0234375
vt 0.26171875 0.05859375
vt 0.26171875 0.0234375
vt 0.21289062 0.05859375
vt 0.1328125 0.13476562
vt 0.27929688 0.21875
vt 0.27929688 0.13476562
vt 0.1328125 0.21875
vt 0.00390625 0.060546875
vt 0.12890625 0.21875
vt 0.12890625 0.060546875
vt 0.00390625 0.21875
vt 0.50390625 0.3359375
vt 0.8378906 0.6640625
vt 0.8378906 0.3359375
vt 0.50390625 0.6640625
vt 0.091796875 0.00390625
vt 0.1484375 0.056640625
vt 0.1484375 0.00390625
vt 0.091796875 0.056640625
vt 0.23046875 0.06640625
vt 0.30859375 0.13085938
vt 0.30859375 0.06640625
vt 0.23046875 0.13085938
vt 0.1328125 0.0625
vt 0.2265625 0.13085938
vt 0.2265625 0.0625
vt 0.1328125 0.13085938
vt 0.00390625 0.22265625
vt 0.16210938 0.6074219
vt 0.16210938 0.22265625
vt 0.00390625 0.6074219
vt 0.00390625 0.6113281
vt 0.16210938 0.99609375
vt 0.16210938 0.6113281
vt 0.00390625 0.99609375

o NPC_Skin
s 1
usemtl NPC_Skin_0
f 1/1/1 2/2/2 3/3/3
f 1/1/1 4/4/4 2/2/2
f 5/5/5 6/6/6 7/7/7
f 5/5/5 8/8/8 6/6/6
f 9/9/9 10/10/10 11/11/11
f 9/9/9 12/12/12 10/10/10
f 13/13/13 14/14/14 15/15/15
f 13/13/13 16/16/16 14/14/14
f 17/17/17 18/18/18 19/19/19
f 17/17/17 20/20/20 18/18/18
f 21/21/21 22/22/22 23/23/23
f 21/21/21 24/24/24 22/22/22
f 25/25/25 26/26/26 27/27/27
f 25/25/25 28/28/28 26/26/26
f 29/29/29 30/30/30 31/31/31
f 29/29/29 32/32/32 30/30/30
f 33/33/33 34/34/34 35/35/35
f 33/33/33 36/36/36 34/34/34
f 37/37/37 38/38/38 39/39/39
f 37/37/37 40/40/40 38/38/38
f 41/41/41 42/42/42 43/43/43
f 41/41/41 44/44/44 42/42/42
f 45/45/45 46/46/46 47/47/47
f 45/45/45 48/48/48 46/46/46
f 49/49/49 50/50/50 51/51/51
f 49/49/49 52/52/52 50/50/50
f 53/53/53 54/54/54 55/55/55
f 53/53/53 56/56/56 54/54/54
f 57/57/57 58/58/58 59/59/59
f 57/57/57 60/60/60 58/58/58
f 61/61/61 62/62/62 63/63/63
f 61/61/61 64/64/64 62/62/62

