# Created by DisUnity v0.3.0
v 223.75682 -1129.6107 0.0
v 147.75682 -1084.6107 0.0
v 147.75682 -1129.6107 0.0
v 223.75682 -1084.6107 0.0
v 568.6948 -1151.9712 0.0
v 508.69482 -1091.9712 0.0
v 508.69482 -1151.9712 0.0
v 568.6948 -1091.9712 0.0
v -605.3581 -795.03326 0.0
v -650.3581 -743.03326 0.0
v -650.3581 -795.03326 0.0
v -605.3581 -743.03326 0.0
v -236.01877 -1101.2179 0.0
v -258.01877 -1075.2179 0.0
v -258.01877 -1101.2179 0.0
v -236.01877 -1075.2179 0.0
v -122.12332 -838.9576 0.0
v -331.12332 -661.9576 0.0
v -331.12332 -838.9576 0.0
v -122.12332 -661.9576 0.0
v 223.18114 -796.17865 0.0
v 111.18114 -764.17865 0.0
v 111.18114 -796.17865 0.0
v 223.18114 -764.17865 0.0
v 552.68884 -820.17865 0.0
v 472.68884 -740.17865 0.0
v 472.68884 -820.17865 0.0
v 552.68884 -740.17865 0.0
v -791.75433 -466.53152 0.0
v -805.75433 -432.53152 0.0
v -805.75433 -466.53152 0.0
v -791.75433 -432.53152 0.0
v -401.52557 -472.24664 0.0
v -445.52557 -434.24664 0.0
v -445.52557 -472.24664 0.0
v -401.52557 -434.24664 0.0
v -63.09355 -466.53152 0.0
v -130.09355 -432.53152 0.0
v -130.09355 -466.53152 0.0
v -63.09355 -432.53152 0.0
v 297.1942 -559.5396 0.0
v 249.19421 -517.5396 0.0
v 249.19421 -559.5396 0.0
v 297.1942 -517.5396 0.0
v 531.404 -455.3861 0.0
v 501.404 -421.3861 0.0
v 501.404 -455.3861 0.0
v 531.404 -421.3861 0.0
v -767.33 -161.4541 0.0
v -867.33 -61.454094 0.0
v -867.33 -161.4541 0.0
v -767.33 -61.454094 0.0
v -449.398 -145.02383 0.0
v -531.398 -63.023827 0.0
v -531.398 -145.02383 0.0
v -449.398 -63.023827 0.0
v 182.14542 -269.966 0.0
v -159.85458 -56.966003 0.0
v -159.85458 -269.966 0.0
v 182.14542 -56.966003 0.0
v 575.11914 -151.59355 0.0
v 465.11914 -41.59355 0.0
v 465.11914 -151.59355 0.0
v 575.11914 -41.59355 0.0
v -800.74994 170.77711 0.0
v -857.74994 227.77711 0.0
v -857.74994 170.77711 0.0
v -800.74994 227.77711 0.0
v -560.7527 173.28009 0.0
v -591.7527 205.28009 0.0
v -591.7527 173.28009 0.0
v -560.7527 205.28009 0.0
v -278.8404 161.67287 0.0
v -349.8404 231.67287 0.0
v -349.8404 161.67287 0.0
v -278.8404 231.67287 0.0
v 31.40685 160.89343 0.0
v -56.593147 230.89343 0.0
v -56.593147 160.89343 0.0
v 31.40685 230.89343 0.0
v 268.2154 156.00842 0.0
v 204.2154 245.00842 0.0
v 204.2154 156.00842 0.0
v 268.2154 245.00842 0.0
v 548.1597 175.05989 0.0
v 484.15973 212.05989 0.0
v 484.15973 175.05989 0.0
v 548.1597 212.05989 0.0
v -815.1751 439.1464 0.0
v -855.1751 507.1464 0.0
v -855.1751 439.1464 0.0
v -815.1751 507.1464 0.0
v -560.1797 462.81528 0.0
v -601.1797 497.81528 0.0
v -601.1797 462.81528 0.0
v -560.1797 497.81528 0.0
v -244.1987 410.52423 0.0
v -399.1987 564.52423 0.0
v -399.1987 410.52423 0.0
v -244.1987 564.52423 0.0
v 27.622208 467.33978 0.0
v 9.622208 515.3398 0.0
v 9.622208 467.33978 0.0
v 27.622208 515.3398 0.0
v 305.56656 455.66782 0.0
v 231.56656 508.66782 0.0
v 231.56656 455.66782 0.0
v 305.56656 508.66782 0.0
v 539.9592 462.38815 0.0
v 482.95926 505.38815 0.0
v 482.95926 462.38815 0.0
v 539.9592 505.38815 0.0
vn 0.0 0.0 1.0
vn 0.0 0.0 1.0
vn 0.0 0.0 1.0
vn 0.0 0.0 1.0
vn 0.0 0.0 1.0
vn 0.0 0.0 1.0
vn 0.0 0.0 1.0
vn 0.0 0.0 1.0
vn 0.0 0.0 1.0
vn 0.0 0.0 1.0
vn 0.0 0.0 1.0
vn 0.0 0.0 1.0
vn 0.0 0.0 1.0
vn 0.0 0.0 1.0
vn 0.0 0.0 1.0
vn 0.0 0.0 1.0
vn 0.0 0.0 1.0
vn 0.0 0.0 1.0
vn 0.0 0.0 1.0
vn 0.0 0.0 1.0
vn 0.0 0.0 1.0
vn 0.0 0.0 1.0
vn 0.0 0.0 1.0
vn 0.0 0.0 1.0
vn 0.0 0.0 1.0
vn 0.0 0.0 1.0
vn 0.0 0.0 1.0
vn 0.0 0.0 1.0
vn 0.0 0.0 1.0
vn 0.0 0.0 1.0
vn 0.0 0.0 1.0
vn 0.0 0.0 1.0
vn 0.0 0.0 1.0
vn 0.0 0.0 1.0
vn 0.0 0.0 1.0
vn 0.0 0.0 1.0
vn 0.0 0.0 1.0
vn 0.0 0.0 1.0
vn 0.0 0.0 1.0
vn 0.0 0.0 1.0
vn 0.0 0.0 1.0
vn 0.0 0.0 1.0
vn 0.0 0.0 1.0
vn 0.0 0.0 1.0
vn 0.0 0.0 1.0
vn 0.0 0.0 1.0
vn 0.0 0.0 1.0
vn 0.0 0.0 1.0
vn 0.0 0.0 1.0
vn 0.0 0.0 1.0
vn 0.0 0.0 1.0
vn 0.0 0.0 1.0
vn 0.0 0.0 1.0
vn 0.0 0.0 1.0
vn 0.0 0.0 1.0
vn 0.0 0.0 1.0
vn 0.0 0.0 1.0
vn 0.0 0.0 1.0
vn 0.0 0.0 1.0
vn 0.0 0.0 1.0
vn 0.0 0.0 1.0
vn 0.0 0.0 1.0
vn 0.0 0.0 1.0
vn 0.0 0.0 1.0
vn 0.0 0.0 1.0
vn 0.0 0.0 1.0
vn 0.0 0.0 1.0
vn 0.0 0.0 1.0
vn 0.0 0.0 1.0
vn 0.0 0.0 1.0
vn 0.0 0.0 1.0
vn 0.0 0.0 1.0
vn 0.0 0.0 1.0
vn 0.0 0.0 1.0
vn 0.0 0.0 1.0
vn 0.0 0.0 1.0
vn 0.0 0.0 1.0
vn 0.0 0.0 1.0
vn 0.0 0.0 1.0
vn 0.0 0.0 1.0
vn 0.0 0.0 1.0
vn 0.0 0.0 1.0
vn 0.0 0.0 1.0
vn 0.0 0.0 1.0
vn 0.0 0.0 1.0
vn 0.0 0.0 1.0
vn 0.0 0.0 1.0
vn 0.0 0.0 1.0
vn 0.0 0.0 1.0
vn 0.0 0.0 1.0
vn 0.0 0.0 1.0
vn 0.0 0.0 1.0
vn 0.0 0.0 1.0
vn 0.0 0.0 1.0
vn 0.0 0.0 1.0
vn 0.0 0.0 1.0
vn 0.0 0.0 1.0
vn 0.0 0.0 1.0
vn 0.0 0.0 1.0
vn 0.0 0.0 1.0
vn 0.0 0.0 1.0
vn 0.0 0.0 1.0
vn 0.0 0.0 1.0
vn 0.0 0.0 1.0
vn 0.0 0.0 1.0
vn 0.0 0.0 1.0
vn 0.0 0.0 1.0
vn 0.0 0.0 1.0
vn 0.0 0.0 1.0
vn 0.0 0.0 1.0
vn 0.0 0.0 1.0
vn 0.0 0.0 1.0
vt 0.8652344 0.25390625
vt 0.9394531 0.34179688
vt 0.9394531 0.25390625
vt 0.8652344 0.34179688
vt 0.8652344 0.1328125
vt 0.9238281 0.25
vt 0.9238281 0.1328125
vt 0.8652344 0.25
vt 0.36328125 0.05859375
vt 0.40722656 0.16015625
vt 0.40722656 0.05859375
vt 0.36328125 0.16015625
vt 0.3359375 0.033203125
vt 0.35742188 0.083984375
vt 0.35742188 0.033203125
vt 0.3359375 0.083984375
vt 0.20800781 0.23046875
vt 0.41210938 0.5761719
vt 0.41210938 0.23046875
vt 0.20800781 0.5761719
vt 0.29882812 0.1640625
vt 0.40820312 0.2265625
vt 0.40820312 0.1640625
vt 0.29882812 0.2265625
vt 0.7207031 0.18554688
vt 0.7988281 0.34179688
vt 0.7988281 0.18554688
vt 0.7207031 0.34179688
vt 0.92578125 0.18359375
vt 0.9394531 0.25
vt 0.9394531 0.18359375
vt 0.92578125 0.25
vt 0.29101562 0.009765625
vt 0.33398438 0.083984375
vt 0.33398438 0.009765625
vt 0.29101562 0.083984375
vt 0.33789062 0.5800781
vt 0.4033203 0.6464844
vt 0.4033203 0.5800781
vt 0.33789062 0.6464844
vt 0.2109375 0.00390625
vt 0.2578125 0.0859375
vt 0.2578125 0.00390625
vt 0.2109375 0.0859375
vt 0.25976562 0.01953125
vt 0.2890625 0.0859375
vt 0.2890625 0.01953125
vt 0.25976562 0.0859375
vt 0.11132813 0.03125
vt 0.20898438 0.2265625
vt 0.20898438 0.03125
vt 0.11132813 0.2265625
vt 0.87402344 0.48632812
vt 0.95410156 0.6464844
vt 0.95410156 0.48632812
vt 0.87402344 0.6464844
vt 0.001953125 0.5800781
vt 0.3359375 0.99609375
vt 0.3359375 0.5800781
vt 0.001953125 0.99609375
vt 0.001953125 0.01171875
vt 0.109375 0.2265625
vt 0.109375 0.01171875
vt 0.001953125 0.2265625
vt 0.7949219 0.052734375
vt 0.85058594 0.1640625
vt 0.85058594 0.052734375
vt 0.7949219 0.1640625
vt 0.9560547 0.6269531
vt 0.9863281 0.6894531
vt 0.9863281 0.6269531
vt 0.9560547 0.6894531
vt 0.87402344 0.34570312
vt 0.9433594 0.48242188
vt 0.9433594 0.34570312
vt 0.87402344 0.48242188
vt 0.2109375 0.08984375
vt 0.296875 0.2265625
vt 0.296875 0.08984375
vt 0.2109375 0.2265625
vt 0.80078125 0.16796875
vt 0.86328125 0.34179688
vt 0.86328125 0.16796875
vt 0.80078125 0.34179688
vt 0.29882812 0.087890625
vt 0.36132812 0.16015625
vt 0.36132812 0.087890625
vt 0.29882812 0.16015625
vt 0.9560547 0.86328125
vt 0.9951172 0.99609375
vt 0.9951172 0.86328125
vt 0.9560547 0.99609375
vt 0.9560547 0.7910156
vt 0.99609375 0.859375
vt 0.99609375 0.7910156
vt 0.9560547 0.859375
vt 0.5673828 0.041015625
vt 0.71875 0.34179688
vt 0.71875 0.041015625
vt 0.5673828 0.34179688
vt 0.9560547 0.6933594
vt 0.9736328 0.7871094
vt 0.9736328 0.6933594
vt 0.9560547 0.7871094
vt 0.7207031 0.078125
vt 0.79296875 0.18164062
vt 0.79296875 0.078125
vt 0.7207031 0.18164062
vt 0.85253906 0.044921875
vt 0.9082031 0.12890625
vt 0.9082031 0.044921875
vt 0.85253906 0.12890625

o NPC_Skin
s 1
usemtl NPC_Skin_0
f 1/1/1 2/2/2 3/3/3
f 1/1/1 4/4/4 2/2/2
f 5/5/5 6/6/6 7/7/7
f 5/5/5 8/8/8 6/6/6
f 9/9/9 10/10/10 11/11/11
f 9/9/9 12/12/12 10/10/10
f 13/13/13 14/14/14 15/15/15
f 13/13/13 16/16/16 14/14/14
f 17/17/17 18/18/18 19/19/19
f 17/17/17 20/20/20 18/18/18
f 21/21/21 22/22/22 23/23/23
f 21/21/21 24/24/24 22/22/22
f 25/25/25 26/26/26 27/27/27
f 25/25/25 28/28/28 26/26/26
f 29/29/29 30/30/30 31/31/31
f 29/29/29 32/32/32 30/30/30
f 33/33/33 34/34/34 35/35/35
f 33/33/33 36/36/36 34/34/34
f 37/37/37 38/38/38 39/39/39
f 37/37/37 40/40/40 38/38/38
f 41/41/41 42/42/42 43/43/43
f 41/41/41 44/44/44 42/42/42
f 45/45/45 46/46/46 47/47/47
f 45/45/45 48/48/48 46/46/46
f 49/49/49 50/50/50 51/51/51
f 49/49/49 52/52/52 50/50/50
f 53/53/53 54/54/54 55/55/55
f 53/53/53 56/56/56 54/54/54
f 57/57/57 58/58/58 59/59/59
f 57/57/57 60/60/60 58/58/58
f 61/61/61 62/62/62 63/63/63
f 61/61/61 64/64/64 62/62/62
f 65/65/65 66/66/66 67/67/67
f 65/65/65 68/68/68 66/66/66
f 69/69/69 70/70/70 71/71/71
f 69/69/69 72/72/72 70/70/70
f 73/73/73 74/74/74 75/75/75
f 73/73/73 76/76/76 74/74/74
f 77/77/77 78/78/78 79/79/79
f 77/77/77 80/80/80 78/78/78
f 81/81/81 82/82/82 83/83/83
f 81/81/81 84/84/84 82/82/82
f 85/85/85 86/86/86 87/87/87
f 85/85/85 88/88/88 86/86/86
f 89/89/89 90/90/90 91/91/91
f 89/89/89 92/92/92 90/90/90
f 93/93/93 94/94/94 95/95/95
f 93/93/93 96/96/96 94/94/94
f 97/97/97 98/98/98 99/99/99
f 97/97/97 100/100/100 98/98/98
f 101/101/101 102/102/102 103/103/103
f 101/101/101 104/104/104 102/102/102
f 105/105/105 106/106/106 107/107/107
f 105/105/105 108/108/108 106/106/106
f 109/109/109 110/110/110 111/111/111
f 109/109/109 112/112/112 110/110/110

