# Created by DisUnity v0.3.0
v 127.50006 -47.999825 0.0
v 102.49951 48.0 0.0
v 102.49951 -47.999825 0.0
v 127.50006 48.0 0.0
v 102.49951 -47.999825 0.0
v -102.500336 48.0 0.0
v -102.500336 -47.999825 0.0
v 102.49951 48.0 0.0
v -102.500336 -47.999825 0.0
v -127.499664 48.0 0.0
v -127.499664 -47.999825 0.0
v -102.500336 48.0 0.0
vn 0.0 0.0 1.0
vn 0.0 0.0 1.0
vn 0.0 0.0 1.0
vn 0.0 0.0 1.0
vn 0.0 0.0 1.0
vn 0.0 0.0 1.0
vn 0.0 0.0 1.0
vn 0.0 0.0 1.0
vn 0.0 0.0 1.0
vn 0.0 0.0 1.0
vn 0.0 0.0 1.0
vn 0.0 0.0 1.0
vt 0.49609375 0.234375
vt 0.59375 0.984375
vt 0.59375 0.234375
vt 0.49609375 0.984375
vt 0.59375 0.234375
vt 0.59375 0.984375
vt 0.59375 0.234375
vt 0.59375 0.984375
vt 0.59375 0.234375
vt 0.69140625 0.984375
vt 0.69140625 0.234375
vt 0.59375 0.984375

o P003
s 1
usemtl P003_0
f 1/1/1 2/2/2 3/3/3
f 1/1/1 4/4/4 2/2/2
f 5/5/5 6/6/6 7/7/7
f 5/5/5 8/8/8 6/6/6
f 9/9/9 10/10/10 11/11/11
f 9/9/9 12/12/12 10/10/10

