# Created by DisUnity v0.3.0
v 34.5 -30.0 0.0
v -34.5 30.0 0.0
v -34.5 -30.0 0.0
v 34.5 30.0 0.0
v 247.576 -29.0 0.0
v 165.576 29.0 0.0
v 165.576 -29.0 0.0
v 247.576 29.0 0.0
v 461.006 -41.5 0.0
v 339.006 41.5 0.0
v 339.006 -41.5 0.0
v 461.006 41.5 0.0
v 247.576 -171.43803 0.0
v 165.576 -113.438034 0.0
v 165.576 -171.43803 0.0
v 247.576 -113.438034 0.0
v 461.006 -183.93803 0.0
v 339.006 -100.938034 0.0
v 339.006 -183.93803 0.0
v 461.006 -100.938034 0.0
v 34.5 -172.43803 0.0
v -34.5 -112.438034 0.0
v -34.5 -172.43803 0.0
v 34.5 -112.438034 0.0
vn 0.0 0.0 1.0
vn 0.0 0.0 1.0
vn 0.0 0.0 1.0
vn 0.0 0.0 1.0
vn 0.0 0.0 1.0
vn 0.0 0.0 1.0
vn 0.0 0.0 1.0
vn 0.0 0.0 1.0
vn 0.0 0.0 1.0
vn 0.0 0.0 1.0
vn 0.0 0.0 1.0
vn 0.0 0.0 1.0
vn 0.0 0.0 1.0
vn 0.0 0.0 1.0
vn 0.0 0.0 1.0
vn 0.0 0.0 1.0
vn 0.0 0.0 1.0
vn 0.0 0.0 1.0
vn 0.0 0.0 1.0
vn 0.0 0.0 1.0
vn 0.0 0.0 1.0
vn 0.0 0.0 1.0
vn 0.0 0.0 1.0
vn 0.0 0.0 1.0
vt 0.4921875 0.046875
vt 0.76171875 0.515625
vt 0.76171875 0.046875
vt 0.4921875 0.515625
vt 0.4921875 0.53125
vt 0.8125 0.984375
vt 0.8125 0.53125
vt 0.4921875 0.984375
vt 0.0078125 0.3359375
vt 0.484375 0.984375
vt 0.484375 0.3359375
vt 0.0078125 0.984375
vt 0.4921875 0.53125
vt 0.8125 0.984375
vt 0.8125 0.53125
vt 0.4921875 0.984375
vt 0.0078125 0.3359375
vt 0.484375 0.984375
vt 0.484375 0.3359375
vt 0.0078125 0.984375
vt 0.4921875 0.046875
vt 0.76171875 0.515625
vt 0.76171875 0.046875
vt 0.4921875 0.515625

o RPGSmokeSkin
s 1
usemtl RPGSmokeSkin_0
f 1/1/1 2/2/2 3/3/3
f 1/1/1 4/4/4 2/2/2
f 5/5/5 6/6/6 7/7/7
f 5/5/5 8/8/8 6/6/6
f 9/9/9 10/10/10 11/11/11
f 9/9/9 12/12/12 10/10/10
f 13/13/13 14/14/14 15/15/15
f 13/13/13 16/16/16 14/14/14
f 17/17/17 18/18/18 19/19/19
f 17/17/17 20/20/20 18/18/18
f 21/21/21 22/22/22 23/23/23
f 21/21/21 24/24/24 22/22/22

