# Created by DisUnity v0.3.0
v -49.900894 -25.256214 0.0
v -68.900894 -3.256215 0.0
v -68.900894 -25.256214 0.0
v -49.900894 -3.256215 0.0
v -168.45062 -20.628107 0.0
v -178.45062 6.3718925 0.0
v -178.45062 -20.628107 0.0
v -168.45062 6.3718925 0.0
v -217.72755 120.43819 0.0
v -252.72755 169.43819 0.0
v -252.72755 120.43819 0.0
v -217.72755 169.43819 0.0
v 193.67783 -84.196304 0.0
v 48.677826 43.803696 0.0
v 48.677826 -84.196304 0.0
v 193.67783 43.803696 0.0
v -67.4593 102.09703 0.0
v -128.45929 189.09703 0.0
v -128.45929 102.09703 0.0
v -67.4593 189.09703 0.0
v 52.78297 116.007 0.0
v 35.78297 147.007 0.0
v 35.78297 116.007 0.0
v 52.78297 147.007 0.0
v 150.05844 116.665085 0.0
v 129.05844 143.66508 0.0
v 129.05844 116.665085 0.0
v 150.05844 143.66508 0.0
vn 0.0 0.0 1.0
vn 0.0 0.0 1.0
vn 0.0 0.0 1.0
vn 0.0 0.0 1.0
vn 0.0 0.0 1.0
vn 0.0 0.0 1.0
vn 0.0 0.0 1.0
vn 0.0 0.0 1.0
vn 0.0 0.0 1.0
vn 0.0 0.0 1.0
vn 0.0 0.0 1.0
vn 0.0 0.0 1.0
vn 0.0 0.0 1.0
vn 0.0 0.0 1.0
vn 0.0 0.0 1.0
vn 0.0 0.0 1.0
vn 0.0 0.0 1.0
vn 0.0 0.0 1.0
vn 0.0 0.0 1.0
vn 0.0 0.0 1.0
vn 0.0 0.0 1.0
vn 0.0 0.0 1.0
vn 0.0 0.0 1.0
vn 0.0 0.0 1.0
vn 0.0 0.0 1.0
vn 0.0 0.0 1.0
vn 0.0 0.0 1.0
vn 0.0 0.0 1.0
vt 0.78515625 0.1328125
vt 0.859375 0.3046875
vt 0.859375 0.1328125
vt 0.78515625 0.3046875
vt 0.73828125 0.09375
vt 0.77734375 0.3046875
vt 0.77734375 0.09375
vt 0.73828125 0.3046875
vt 0.8203125 0.6171875
vt 0.95703125 1.0
vt 0.95703125 0.6171875
vt 0.8203125 1.0
vt 0.0 0.0
vt 0.56640625 1.0
vt 0.56640625 0.0
vt 0.0 1.0
vt 0.57421875 0.3203125
vt 0.8125 1.0
vt 0.8125 0.3203125
vt 0.57421875 1.0
vt 0.57421875 0.0625
vt 0.640625 0.3046875
vt 0.640625 0.0625
vt 0.57421875 0.3046875
vt 0.6484375 0.09375
vt 0.73046875 0.3046875
vt 0.73046875 0.09375
vt 0.6484375 0.3046875

o SheepSkin
s 1
usemtl SheepSkin_0
f 1/1/1 2/2/2 3/3/3
f 1/1/1 4/4/4 2/2/2
f 5/5/5 6/6/6 7/7/7
f 5/5/5 8/8/8 6/6/6
f 9/9/9 10/10/10 11/11/11
f 9/9/9 12/12/12 10/10/10
f 13/13/13 14/14/14 15/15/15
f 13/13/13 16/16/16 14/14/14
f 17/17/17 18/18/18 19/19/19
f 17/17/17 20/20/20 18/18/18
f 21/21/21 22/22/22 23/23/23
f 21/21/21 24/24/24 22/22/22
f 25/25/25 26/26/26 27/27/27
f 25/25/25 28/28/28 26/26/26

