# Created by DisUnity v0.3.0
v 693.7902 968.44293 0.0
v 577.7902 1064.4429 0.0
v 577.7902 968.44293 0.0
v 693.7902 1064.4429 0.0
v 370.32172 1222.8009 0.0
v 416.22803 1225.1693 0.0
v 392.79733 1246.9639 0.0
v 393.7524 1201.0063 0.0
v 370.07178 1016.42224 -0.2591989
v 412.29047 1012.02747 0.2591989
v 391.97223 1035.4316 -0.38368535
v 390.39 993.01807 0.38368535
v 365.36823 801.13776 0.0
v 411.27454 803.50616 0.0
v 387.84384 825.30066 0.0
v 388.79892 779.34326 0.0
vn 0.0 0.0 1.0
vn 0.0 0.0 1.0
vn 0.0 0.0 1.0
vn 0.0 0.0 1.0
vn 0.0 0.0 1.0
vn 0.0 0.0 1.0
vn 0.0 0.0 1.0
vn 0.0 0.0 1.0
vn -0.01035292 0.018474648 0.9997757
vn -0.01035292 0.018474648 0.9997757
vn -0.01035292 0.018474648 0.9997757
vn -0.01035292 0.018474648 0.9997757
vn 0.0 0.0 1.0
vn 0.0 0.0 1.0
vn 0.0 0.0 1.0
vn 0.0 0.0 1.0
vt 0.15234375 0.9042969
vt 0.37890625 0.9980469
vt 0.37890625 0.9042969
vt 0.15234375 0.9980469
vt 0.7949219 0.9667969
vt 0.859375 0.9980469
vt 0.859375 0.9667969
vt 0.7949219 0.9980469
vt 0.86328125 0.96777344
vt 0.9199219 0.9980469
vt 0.9199219 0.96777344
vt 0.86328125 0.9980469
vt 0.7949219 0.9667969
vt 0.859375 0.9980469
vt 0.859375 0.9667969
vt 0.7949219 0.9980469

o ShootBlood_02_Skin
s 1
usemtl ShootBlood_02_Skin_0
f 1/1/1 2/2/2 3/3/3
f 1/1/1 4/4/4 2/2/2
f 5/5/5 6/6/6 7/7/7
f 5/5/5 8/8/8 6/6/6
f 9/9/9 10/10/10 11/11/11
f 9/9/9 12/12/12 10/10/10
f 13/13/13 14/14/14 15/15/15
f 13/13/13 16/16/16 14/14/14

