# Created by DisUnity v0.3.0
v -138.11607 1199.7433 -0.2591989
v -95.8974 1195.3485 0.2591989
v -116.215645 1218.7527 -0.38368535
v -117.79783 1176.3391 0.38368535
v -459.33023 1199.7114 -0.2591989
v -417.11154 1195.3167 0.2591989
v -437.42978 1218.7208 -0.38368535
v -439.012 1176.3073 0.38368535
v -244.28436 976.4396 0.0
v -332.28436 1067.4396 0.0
v -332.28436 976.4396 0.0
v -244.28436 1067.4396 0.0
v -141.18823 860.9241 0.0
v -95.281906 863.2925 0.0
v -118.71261 885.08704 0.0
v -117.75753 839.1295 0.0
v -470.77765 853.53986 0.0
v -424.87134 855.90826 0.0
v -448.30203 877.70276 0.0
v -447.34695 831.74536 0.0
vn -0.010352988 0.018474728 0.9997757
vn -0.010352988 0.018474728 0.9997757
vn -0.010352988 0.018474728 0.9997757
vn -0.010352988 0.018474728 0.9997757
vn -0.010352942 0.018474655 0.9997757
vn -0.010352942 0.018474655 0.9997757
vn -0.010352942 0.018474655 0.9997757
vn -0.010352942 0.018474655 0.9997757
vn 0.0 0.0 1.0
vn 0.0 0.0 1.0
vn 0.0 0.0 1.0
vn 0.0 0.0 1.0
vn 0.0 0.0 1.0
vn 0.0 0.0 1.0
vn 0.0 0.0 1.0
vn 0.0 0.0 1.0
vn 0.0 0.0 1.0
vn 0.0 0.0 1.0
vn 0.0 0.0 1.0
vn 0.0 0.0 1.0
vt 0.86328125 0.96777344
vt 0.9199219 0.9980469
vt 0.9199219 0.96777344
vt 0.86328125 0.9980469
vt 0.86328125 0.96777344
vt 0.9199219 0.9980469
vt 0.9199219 0.96777344
vt 0.86328125 0.9980469
vt 0.3828125 0.9091797
vt 0.5546875 0.9980469
vt 0.5546875 0.9091797
vt 0.3828125 0.9980469
vt 0.7949219 0.9667969
vt 0.859375 0.9980469
vt 0.859375 0.9667969
vt 0.7949219 0.9980469
vt 0.7949219 0.9667969
vt 0.859375 0.9980469
vt 0.859375 0.9667969
vt 0.7949219 0.9980469

o ShootBlood_03_Skin
s 1
usemtl ShootBlood_03_Skin_0
f 1/1/1 2/2/2 3/3/3
f 1/1/1 4/4/4 2/2/2
f 5/5/5 6/6/6 7/7/7
f 5/5/5 8/8/8 6/6/6
f 9/9/9 10/10/10 11/11/11
f 9/9/9 12/12/12 10/10/10
f 13/13/13 14/14/14 15/15/15
f 13/13/13 16/16/16 14/14/14
f 17/17/17 18/18/18 19/19/19
f 17/17/17 20/20/20 18/18/18

