# Created by DisUnity v0.3.0
v -40.215263 -112.47564 0.0
v -100.21526 -60.47564 0.0
v -100.21526 -112.47564 0.0
v -40.215263 -60.47564 0.0
v 107.84494 -69.65043 0.0
v 82.84494 -45.65043 0.0
v 82.84494 -69.65043 0.0
v 107.84494 -45.65043 0.0
v 41.5 -33.5 0.0
v -41.5 33.5 0.0
v -41.5 -33.5 0.0
v 41.5 33.5 0.0
v -84.667274 81.08927 0.0
v -117.667274 111.08927 0.0
v -117.667274 81.08927 0.0
v -84.667274 111.08927 0.0
v 108.062775 51.628128 0.0
v 53.062775 100.62813 0.0
v 53.062775 51.628128 0.0
v 108.062775 100.62813 0.0
vn 0.0 0.0 1.0
vn 0.0 0.0 1.0
vn 0.0 0.0 1.0
vn 0.0 0.0 1.0
vn 0.0 0.0 1.0
vn 0.0 0.0 1.0
vn 0.0 0.0 1.0
vn 0.0 0.0 1.0
vn 0.0 0.0 1.0
vn 0.0 0.0 1.0
vn 0.0 0.0 1.0
vn 0.0 0.0 1.0
vn 0.0 0.0 1.0
vn 0.0 0.0 1.0
vn 0.0 0.0 1.0
vn 0.0 0.0 1.0
vn 0.0 0.0 1.0
vn 0.0 0.0 1.0
vn 0.0 0.0 1.0
vn 0.0 0.0 1.0
vt 0.015625 0.0390625
vt 0.484375 0.4453125
vt 0.484375 0.0390625
vt 0.015625 0.4453125
vt 0.6796875 0.546875
vt 0.875 0.734375
vt 0.875 0.546875
vt 0.6796875 0.734375
vt 0.015625 0.4609375
vt 0.6640625 0.984375
vt 0.6640625 0.4609375
vt 0.015625 0.984375
vt 0.6796875 0.75
vt 0.9375 0.984375
vt 0.9375 0.75
vt 0.6796875 0.984375
vt 0.5 0.0625
vt 0.9296875 0.4453125
vt 0.9296875 0.0625
vt 0.5 0.4453125

o SpraySmoke
s 1
usemtl SpraySmoke_0
f 1/1/1 2/2/2 3/3/3
f 1/1/1 4/4/4 2/2/2
f 5/5/5 6/6/6 7/7/7
f 5/5/5 8/8/8 6/6/6
f 9/9/9 10/10/10 11/11/11
f 9/9/9 12/12/12 10/10/10
f 13/13/13 14/14/14 15/15/15
f 13/13/13 16/16/16 14/14/14
f 17/17/17 18/18/18 19/19/19
f 17/17/17 20/20/20 18/18/18

