# Created by DisUnity v0.3.0
v -70.130714 -129.41898 0.0
v -117.130714 -18.418983 0.0
v -117.130714 -129.41898 0.0
v -70.130714 -18.418983 0.0
v 198.0512 -52.2162 0.0
v 114.05119 81.7838 0.0
v 114.05119 -52.2162 0.0
v 198.0512 81.7838 0.0
v -234.10684 64.19533 0.0
v -321.10684 228.19533 0.0
v -321.10684 64.19533 0.0
v -234.10684 228.19533 0.0
v 21.001492 184.82156 0.0
v -43.99851 363.82156 0.0
v -43.99851 184.82156 0.0
v 21.001492 363.82156 0.0
v 294.18488 210.82455 0.0
v 159.18489 291.82455 0.0
v 159.18489 210.82455 0.0
v 294.18488 291.82455 0.0
vn 0.0 0.0 1.0
vn 0.0 0.0 1.0
vn 0.0 0.0 1.0
vn 0.0 0.0 1.0
vn 0.0 0.0 1.0
vn 0.0 0.0 1.0
vn 0.0 0.0 1.0
vn 0.0 0.0 1.0
vn 0.0 0.0 1.0
vn 0.0 0.0 1.0
vn 0.0 0.0 1.0
vn 0.0 0.0 1.0
vn 0.0 0.0 1.0
vn 0.0 0.0 1.0
vn 0.0 0.0 1.0
vn 0.0 0.0 1.0
vn 0.0 0.0 1.0
vn 0.0 0.0 1.0
vn 0.0 0.0 1.0
vn 0.0 0.0 1.0
vt 0.8046875 0.55859375
vt 0.98828125 0.9921875
vt 0.98828125 0.55859375
vt 0.8046875 0.9921875
vt 0.6171875 0.02734375
vt 0.9453125 0.55078125
vt 0.9453125 0.02734375
vt 0.6171875 0.55078125
vt 0.26953125 0.02734375
vt 0.609375 0.66796875
vt 0.609375 0.02734375
vt 0.26953125 0.66796875
vt 0.0078125 0.29296875
vt 0.26171875 0.9921875
vt 0.26171875 0.29296875
vt 0.0078125 0.9921875
vt 0.26953125 0.67578125
vt 0.796875 0.9921875
vt 0.796875 0.67578125
vt 0.26953125 0.9921875

o Tesla_Skin
s 1
usemtl Tesla_Skin_0
f 1/1/1 2/2/2 3/3/3
f 1/1/1 4/4/4 2/2/2
f 5/5/5 6/6/6 7/7/7
f 5/5/5 8/8/8 6/6/6
f 9/9/9 10/10/10 11/11/11
f 9/9/9 12/12/12 10/10/10
f 13/13/13 14/14/14 15/15/15
f 13/13/13 16/16/16 14/14/14
f 17/17/17 18/18/18 19/19/19
f 17/17/17 20/20/20 18/18/18

